<?xml version="1.0" encoding="UTF-8"?>
<svg version="1.1" xmlns="http://www.w3.org/2000/svg" width="414" height="426">
<path d="M0 0 C0 0.66 0 1.32 0 2 C0.59296875 2.26425781 1.1859375 2.52851562 1.796875 2.80078125 C4.08029054 4.04370425 5.47426723 5.30401646 7.25 7.1875 C9.66042029 9.67452263 12.11175214 12.00640807 14.75 14.25 C18.15838415 17.18279566 21.34400214 20.30071741 24.5 23.5 C28.2329067 27.28403365 32.06213381 30.87379647 36.10546875 34.32421875 C38.86935371 36.76897472 41.41984517 39.41081552 44.0078125 42.0390625 C45.90327074 43.90478806 47.85446735 45.64659255 49.875 47.375 C53.06682509 50.11621449 56.04302977 53.00685888 59 56 C65.23352767 62.2947707 65.23352767 62.2947707 72 68 C72.90105469 68.70962891 72.90105469 68.70962891 73.8203125 69.43359375 C76.22724515 70.31736202 76.22724515 70.31736202 79.09375 68.41015625 C80.23968888 67.64309507 81.37487701 66.85978103 82.5 66.0625 C88.26925253 62.01355747 88.26925253 62.01355747 91.10546875 61.9609375 C93.80627793 63.44220604 95.66985486 65.35236997 97.8125 67.5625 C98.699375 68.47515625 99.58625 69.3878125 100.5 70.328125 C103.06595965 73.07049437 105.5188925 75.88316866 107.95703125 78.73828125 C111.2383247 82.37091779 114.75033288 85.77008082 118.23046875 89.2109375 C121.78412979 92.73992034 125.15184361 96.35661581 128.39453125 100.17578125 C130.80781466 102.91788186 133.4294709 105.43824828 136.03125 108 C138.54610923 110.55477763 140.86153617 113.25389677 143.19140625 115.9765625 C145.81534897 118.91220468 148.64618465 121.62122333 151.49609375 124.3359375 C153 126 153 126 153 128 C153.66 128 154.32 128 155 128 C156.42993164 129.43359375 156.42993164 129.43359375 158.09765625 131.4375 C162.06480763 136.10304282 166.22690279 140.55441063 170.4375 145 C171.16904297 145.77472656 171.90058594 146.54945313 172.65429688 147.34765625 C174.43490214 149.233003 176.21681678 151.11709191 178 153 C177.67 153.66 177.34 154.32 177 155 C161.953125 141.20703125 161.953125 141.20703125 160.47314453 139.8503418 C159.48459172 138.94419569 158.49598424 138.03810921 157.50732422 137.13208008 C154.9801693 134.81600143 152.45400724 132.49885617 149.9296875 130.1796875 C149.41792969 129.70982422 148.90617187 129.23996094 148.37890625 128.75585938 C146.97887178 127.47037318 145.57926257 126.18442386 144.1796875 124.8984375 C142.39630853 123.26245996 140.59951051 121.6454676 138.78735352 120.04125977 C132.34368614 114.31856216 126.23652212 108.32362107 120.1875 102.1875 C118.3708901 100.34528601 116.5519599 98.50535655 114.73046875 96.66796875 C113.94051514 95.86641357 113.15056152 95.0648584 112.33666992 94.23901367 C110.00067863 91.92256322 110.00067863 91.92256322 107.2043457 89.83325195 C106.47691162 89.22827881 105.74947754 88.62330566 105 88 C105 87.34 105 86.68 105 86 C104.34 86 103.68 86 103 86 C101.484375 84.42578125 101.484375 84.42578125 99.75 82.3125 C96.74045531 78.76035397 93.66475465 75.86029631 90 73 C89.731875 73.680625 89.46375 74.36125 89.1875 75.0625 C88.31382891 77.22368639 87.33975333 79.34494692 86.3125 81.4375 C84.80436655 85.53100509 84.89533009 86.83662187 86 91 C87.4047532 93.96599351 89.05348351 96.75540263 90.75 99.5625 C91.18054688 100.30435547 91.61109375 101.04621094 92.0546875 101.81054688 C95.40864656 107.44901397 99.21919131 111.87699773 104.5625 115.75 C105.25085938 116.25660156 105.93921875 116.76320313 106.6484375 117.28515625 C107.42445313 117.85105469 108.20046875 118.41695313 109 119 C115.5577994 123.80091045 121.96926429 128.7057657 128.1875 133.9375 C128.75235107 134.41018311 129.31720215 134.88286621 129.89916992 135.36987305 C133.8763117 138.7526234 133.8763117 138.7526234 135 141 C131.8816299 140.35171771 129.40702281 139.27533495 126.62109375 137.7421875 C125.78731201 137.28448975 124.95353027 136.82679199 124.09448242 136.35522461 C123.21767822 135.86675049 122.34087402 135.37827637 121.4375 134.875 C120.53942627 134.37943604 119.64135254 133.88387207 118.71606445 133.37329102 C113.92754748 130.70954046 109.25892245 127.95744807 104.6875 124.9375 C101.76220387 123.00698625 99.85818995 121.96019367 96.4375 121 C92.12890197 119.74658966 89.23511558 117.50972122 85.62890625 114.89453125 C83.00145673 113.0010498 80.35203663 111.18457059 77.625 109.4375 C76.83351563 108.92058594 76.04203125 108.40367187 75.2265625 107.87109375 C73.08221112 106.78174727 73.08221112 106.78174727 71.10546875 107.48828125 C68.07102115 109.66700337 65.38770467 112.18021179 62.6875 114.75 C61.52562916 115.84079207 60.36287734 116.93064656 59.19921875 118.01953125 C58.64540527 118.53854004 58.0915918 119.05754883 57.52099609 119.59228516 C55.7215723 121.25769087 53.8763048 122.85941583 52 124.4375 C49.17626666 126.8494389 46.59388709 129.34435369 44 132 C42.39718992 133.60552211 40.79291845 135.2095861 39.1875 136.8125 C38.39730469 137.60269531 37.60710937 138.39289063 36.79296875 139.20703125 C36.20128906 139.79871094 35.60960937 140.39039063 35 141 C38.81735322 141.84825134 42.54304506 142.25848395 46.44140625 142.54296875 C85.5966041 145.61069764 124.10075729 152.17319573 161 166 C162.36529906 166.4938117 163.7311308 166.98615481 165.09765625 167.4765625 C170.54343208 169.47805395 175.39147045 171.44484863 180 175 C176.1857894 176.27140353 175.26666228 175.50026058 171.625 173.9375 C85.11742059 139.56236965 -22.92102442 150.47566552 -116 181 C-117.71209856 181.55512263 -119.42432715 182.10984447 -121.13671875 182.6640625 C-131.62280584 186.1309523 -141.81375465 190.30927361 -152 194.5625 C-152.65740173 194.83622437 -153.31480347 195.10994873 -153.99212646 195.39196777 C-161.71099858 198.61644446 -169.24229604 202.02663468 -176.609375 206.01147461 C-179 207 -179 207 -182 206 C-175.24902593 200.37418827 -167.8874441 196.77251462 -160.02539062 192.98486328 C-157.03724359 191.53185157 -154.08434174 190.01064072 -151.125 188.5 C-137.30449043 181.62101334 -123.30771503 175.7938237 -108.66455078 170.90185547 C-105.95229961 169.98385512 -103.25546158 169.02858126 -100.55859375 168.06640625 C-89.26818884 164.09226942 -77.87250382 160.77434767 -66.25 157.9375 C-65.56442017 157.76898529 -64.87884033 157.60047058 -64.17248535 157.42684937 C-55.9976296 155.43485692 -47.83103661 153.7478974 -39.51953125 152.43359375 C-22.62059346 149.71252239 -9.36936101 147.28254265 3.21972656 134.71728516 C6.04266011 131.99423049 9.1655857 129.70649419 12.3125 127.375 C15.15690036 125.19615214 17.97682673 123.01929448 20.73046875 120.7265625 C23 119 23 119 25 119 C24.34728444 122.51705958 23.48606976 125.89325077 22.4375 129.3125 C22.03337891 130.63701172 22.03337891 130.63701172 21.62109375 131.98828125 C21.41613281 132.65214844 21.21117187 133.31601563 21 134 C34.98591882 126.97172261 44.16633206 117.99573838 53.58154297 105.78222656 C55.87329037 102.90275048 58.41381455 100.26685238 61.0234375 97.67578125 C62.22849924 95.96268179 62.22849924 95.96268179 61.85546875 93.50390625 C60.92181933 90.77116982 60.0305289 89.57976503 57.9375 87.625 C57.30070313 87.02429688 56.66390625 86.42359375 56.0078125 85.8046875 C53.45535132 83.51045196 50.88313704 81.24257302 48.28515625 79 C44.52275872 75.70709823 40.85673417 72.30928532 37.1796875 68.921875 C35.00738643 66.92103585 32.82429298 64.93293559 30.6328125 62.953125 C30.0872168 62.45844727 29.54162109 61.96376953 28.97949219 61.45410156 C27.93292853 60.50563334 26.88419619 59.55955099 25.83300781 58.61621094 C23.51117793 56.50617493 21.75405555 54.63108332 20 52 C26.17937918 54.19268293 31.73242859 57.68140067 37.37890625 60.96484375 C49.10877899 67.91024143 49.10877899 67.91024143 62 72 C56.55672602 65.56023008 50.72322289 59.57202454 44.75 53.625 C43.8528125 52.72394531 42.955625 51.82289063 42.03125 50.89453125 C41.17015625 50.03472656 40.3090625 49.17492187 39.421875 48.2890625 C38.64424805 47.51256348 37.86662109 46.73606445 37.06542969 45.93603516 C34.95415138 43.85075768 34.95415138 43.85075768 32 42 C32 41.34 32 40.68 32 40 C31.38125 39.71125 30.7625 39.4225 30.125 39.125 C28 38 28 38 26 36 C28.19878026 40.7640239 31.27207661 44.9485551 34.25 49.25 C36 52 36 52 36 54 C27.24292148 52.50903189 21.15429296 39.93320152 16.140625 33.19921875 C13.13181949 29.16536366 10.08717568 25.16168628 7 21.1875 C6.5555957 20.60726074 6.11119141 20.02702148 5.65332031 19.42919922 C3.35121039 16.48253369 1.12977515 14.06478222 -2 12 C-2.78375 12.825 -3.5675 13.65 -4.375 14.5 C-7 17 -7 17 -9 17 C-9.33 17.99 -9.66 18.98 -10 20 C-10.66 20 -11.32 20 -12 20 C-12 20.66 -12 21.32 -12 22 C-12.680625 22.53625 -13.36125 23.0725 -14.0625 23.625 C-17.1345446 26.10878074 -19.47138032 28.77137574 -22.01953125 31.76953125 C-24.93840561 35.05686312 -28.10453742 38.07680213 -31.27734375 41.1171875 C-33.2250104 42.82060216 -33.2250104 42.82060216 -33 45 C-29.37 44.01 -25.74 43.02 -22 42 C-23.26747679 45.80243037 -24.55081132 46.21703681 -27.9375 48.25 C-31.64579587 50.52836173 -35.27083566 52.84523976 -38.8125 55.375 C-42.18816654 57.77547398 -45.62085117 60.03992048 -49.13037109 62.24023438 C-56.77172611 67.03853458 -64.35797558 72.12194044 -70.61328125 78.6953125 C-72 80 -72 80 -75 81 C-74.6390625 81.69867188 -74.278125 82.39734375 -73.90625 83.1171875 C-73.21015625 84.48230469 -73.21015625 84.48230469 -72.5 85.875 C-71.80390625 87.23238281 -71.80390625 87.23238281 -71.09375 88.6171875 C-70 91 -70 91 -70 93 C-68.906875 92.484375 -67.81375 91.96875 -66.6875 91.4375 C-63 90 -63 90 -60 91 C-73.34266421 109.14762023 -73.34266421 109.14762023 -79 116.6875 C-80.03447266 118.06808594 -80.03447266 118.06808594 -81.08984375 119.4765625 C-82.33947706 121.12740732 -83.60206742 122.76854345 -84.87890625 124.3984375 C-85.43449219 125.11257812 -85.99007812 125.82671875 -86.5625 126.5625 C-87.03816406 127.16191406 -87.51382813 127.76132813 -88.00390625 128.37890625 C-89.26176229 130.10889386 -89.26176229 130.10889386 -89 133 C-85.91431365 131.25412652 -82.83156704 129.5031338 -79.75 127.75 C-78.8108374 127.21584473 -77.8716748 126.68168945 -76.90405273 126.13134766 C-69.37918187 121.83196006 -61.94370726 117.39724729 -54.57519531 112.83496094 C-51.29894052 110.8343919 -48.40310511 109.13131089 -44.73828125 107.9375 C-41.35297545 106.77847947 -39.66407743 105.13162916 -37.125 102.625 C-30.23069422 96.10258623 -22.65560143 90.59041409 -15 85 C-15 89.3007805 -17.59484655 91.07930791 -20.4375 94 C-25.1753707 98.98380276 -29.6083 104.06190216 -33.8671875 109.46484375 C-38.28158284 114.71199133 -42.1252651 118.43741055 -48.4375 121.375 C-49.84776031 122.04914965 -51.25646804 122.72655172 -52.6640625 123.40625 C-53.48165039 123.79941406 -54.29923828 124.19257813 -55.14160156 124.59765625 C-61.24726811 127.59312505 -67.27326971 130.74834214 -73.3125 133.875 C-74.67290924 134.57825224 -76.03334211 135.28145876 -77.39379883 135.98461914 C-84.98081695 139.90816896 -92.56198041 143.84284593 -100.125 147.8125 C-100.86919189 148.20228027 -101.61338379 148.59206055 -102.38012695 148.99365234 C-105.2547618 150.50862127 -108.05084129 152.03193513 -110.8046875 153.76171875 C-113 155 -113 155 -116 155 C-114.5007252 150.3081518 -111.73691647 146.96539789 -108.625 143.25 C-103.6924608 137.22613836 -99.09354744 131.05097794 -94.67163086 124.64428711 C-91.9072733 120.65354352 -89.06734822 116.75136458 -86.09765625 112.91015625 C-85.44716309 112.0603418 -84.79666992 111.21052734 -84.12646484 110.33496094 C-82.85840517 108.68530184 -81.5766367 107.04606748 -80.27978516 105.41894531 C-76.81664439 101.04837546 -76.81664439 101.04837546 -76.0390625 95.6953125 C-76.35617188 94.80585938 -76.67328125 93.91640625 -77 93 C-77.17917969 92.31035156 -77.35835938 91.62070313 -77.54296875 90.91015625 C-79.37891453 85.64711168 -82.14434783 81.9929084 -86 78 C-90.07242285 79.52830251 -91.73257834 82.06121829 -94.1875 85.5625 C-98.25859439 91.21218201 -102.63519818 96.50853801 -108 101 C-108.66 101 -109.32 101 -110 101 C-110 101.66 -110 102.32 -110 103 C-111.74285148 104.41644115 -113.54732215 105.75734466 -115.375 107.0625 C-123.94894961 113.33098742 -131.48730692 120.44938647 -138.9375 128 C-143.83937211 132.96787282 -148.87392673 137.52550576 -154.35546875 141.859375 C-157.17357174 144.14049825 -159.83493069 146.54225575 -162.5 149 C-166.9578056 153.10270302 -171.56215839 156.95302974 -176.28125 160.75 C-179.98289705 163.81343204 -183.4966566 167.06487058 -187.00390625 170.34765625 C-189 172 -189 172 -191 172 C-189.43178837 168.15075326 -186.94935623 165.87742071 -184 163 C-182.37365981 161.39719206 -180.74866944 159.79301339 -179.125 158.1875 C-177.92230469 157.00220703 -177.92230469 157.00220703 -176.6953125 155.79296875 C-174.64535352 153.66873589 -172.71589755 151.5309422 -170.79638672 149.29418945 C-167.21426667 145.18743728 -163.43950168 141.32687853 -159.5625 137.5 C-158.87873291 136.82001953 -158.19496582 136.14003906 -157.49047852 135.43945312 C-154.60262227 132.56774857 -151.70876925 129.70211562 -148.81542969 126.8359375 C-146.68734275 124.72607213 -144.56237083 122.61310355 -142.4375 120.5 C-141.79562744 119.86642578 -141.15375488 119.23285156 -140.49243164 118.58007812 C-137.41569329 115.51979721 -134.4509416 112.4155548 -131.6159668 109.12915039 C-125.00521365 101.47630466 -117.72554801 94.42208902 -110.60180664 87.25170898 C-108.73130823 85.36451116 -106.86554813 83.47387171 -105.00708008 81.57495117 C-102.31480033 78.82826282 -99.60676411 76.09806331 -96.89453125 73.37109375 C-96.0621846 72.51607773 -95.22983795 71.66106171 -94.37226868 70.78013611 C-93.59433456 70.00505203 -92.81640045 69.22996796 -92.01489258 68.43139648 C-91.33429276 67.74270981 -90.65369293 67.05402313 -89.95246887 66.34446716 C-88 65 -88 65 -85.86039734 65.22254944 C-83.92376715 66.03185732 -82.25882168 66.98176591 -80.5 68.125 C-77.37163094 70.19807473 -77.37163094 70.19807473 -75.0390625 69.87109375 C-72.34099158 68.71846958 -70.86399817 67.08153415 -68.875 64.9375 C-67.61987331 63.59001493 -66.33492972 62.26847218 -65 61 C-64.34 61 -63.68 61 -63 61 C-63 60.34 -63 59.68 -63 59 C-61.35648543 57.63823078 -59.68477344 56.31037934 -58 55 C-56.31237149 53.3545622 -54.6459651 51.68711423 -53 50 C-52.13375 49.154375 -51.2675 48.30875 -50.375 47.4375 C-48.00138243 45.11645367 -48.00138243 45.11645367 -46.3125 42.6875 C-45.879375 42.130625 -45.44625 41.57375 -45 41 C-44.34 41 -43.68 41 -43 41 C-43 40.34 -43 39.68 -43 39 C-41.35648543 37.63823078 -39.68477344 36.31037934 -38 35 C-36.31283007 33.35046211 -34.65219173 31.68415491 -33 30 C-29.94244739 26.89091357 -26.87874896 23.78800872 -23.8125 20.6875 C-22.99330078 19.85154297 -22.17410156 19.01558594 -21.33007812 18.15429688 C-20.54697266 17.36474609 -19.76386719 16.57519531 -18.95703125 15.76171875 C-18.24522705 15.03944092 -17.53342285 14.31716309 -16.80004883 13.57299805 C-15 12 -15 12 -13 12 C-13 11.34 -13 10.68 -13 10 C-11.35546875 8.37890625 -11.35546875 8.37890625 -9.1875 6.5625 C-6.17536735 4.02660668 -6.17536735 4.02660668 -3.36328125 1.27734375 C-2 0 -2 0 0 0 Z M23 33 C23 33.66 23 34.32 23 35 C23.66 34.67 24.32 34.34 25 34 C24.34 33.67 23.68 33.34 23 33 Z M76.5625 81.0625 C72.75667496 83.71448077 69.38674813 83.00984486 64.9765625 82.359375 C63.99816406 82.18148437 63.99816406 82.18148437 63 82 C63 82.66 63 83.32 63 84 C64.32 84 65.64 84 67 84 C67.061875 84.556875 67.12375 85.11375 67.1875 85.6875 C68.33373872 88.94987173 70.49390197 90.68667874 73 93 C71.79618552 95.49361571 70.54571278 97.68143083 69 100 C70.0725 100.103125 71.145 100.20625 72.25 100.3125 C76.01746654 101.0032022 77.09682461 101.7742322 80 104 C82.66761764 104.25124826 82.66761764 104.25124826 85 104 C83.67567092 99.48524177 82.45062444 95.65090197 79.75 91.75 C78 89 78 89 78.1875 86.4375 C78.455625 85.633125 78.72375 84.82875 79 84 C79.185625 83.071875 79.37125 82.14375 79.5625 81.1875 C79.706875 80.465625 79.85125 79.74375 80 79 C78.59506272 78.89234296 78.59506272 78.89234296 76.5625 81.0625 Z " fill="#A280FA" transform="translate(215,102)"/>
<path d="M0 0 C0 0.66 0 1.32 0 2 C0.59296875 2.26425781 1.1859375 2.52851562 1.796875 2.80078125 C4.08029054 4.04370425 5.47426723 5.30401646 7.25 7.1875 C9.7520532 9.77527665 12.31588833 12.17352014 15.0625 14.5 C18.79822618 17.71141373 21.88672148 21.18623381 25 25 C23.6875 26.5 23.6875 26.5 22 28 C21.01 28 20.02 28 19 28 C18.01 29.485 18.01 29.485 17 31 C12.43767521 29.439771 10.25763722 25.77817195 7.5 22.0625 C3.36774217 16.42013525 3.36774217 16.42013525 -2 12 C-2.78375 12.825 -3.5675 13.65 -4.375 14.5 C-7 17 -7 17 -9 17 C-9.33 17.99 -9.66 18.98 -10 20 C-10.66 20 -11.32 20 -12 20 C-12 20.66 -12 21.32 -12 22 C-12.680625 22.53625 -13.36125 23.0725 -14.0625 23.625 C-17.1345446 26.10878074 -19.47138032 28.77137574 -22.01953125 31.76953125 C-24.93840561 35.05686312 -28.10453742 38.07680213 -31.27734375 41.1171875 C-33.2250104 42.82060216 -33.2250104 42.82060216 -33 45 C-29.37 44.01 -25.74 43.02 -22 42 C-23.26747679 45.80243037 -24.55081132 46.21703681 -27.9375 48.25 C-31.64579587 50.52836173 -35.27083566 52.84523976 -38.8125 55.375 C-42.18816654 57.77547398 -45.62085117 60.03992048 -49.13037109 62.24023438 C-56.77172611 67.03853458 -64.35797558 72.12194044 -70.61328125 78.6953125 C-72 80 -72 80 -75 81 C-74.6390625 81.69867188 -74.278125 82.39734375 -73.90625 83.1171875 C-73.21015625 84.48230469 -73.21015625 84.48230469 -72.5 85.875 C-71.80390625 87.23238281 -71.80390625 87.23238281 -71.09375 88.6171875 C-70 91 -70 91 -70 93 C-68.906875 92.484375 -67.81375 91.96875 -66.6875 91.4375 C-63 90 -63 90 -60 91 C-73.34266421 109.14762023 -73.34266421 109.14762023 -79 116.6875 C-80.03447266 118.06808594 -80.03447266 118.06808594 -81.08984375 119.4765625 C-82.33947706 121.12740732 -83.60206742 122.76854345 -84.87890625 124.3984375 C-85.43449219 125.11257812 -85.99007812 125.82671875 -86.5625 126.5625 C-87.03816406 127.16191406 -87.51382813 127.76132813 -88.00390625 128.37890625 C-89.26176229 130.10889386 -89.26176229 130.10889386 -89 133 C-85.91431365 131.25412652 -82.83156704 129.5031338 -79.75 127.75 C-78.8108374 127.21584473 -77.8716748 126.68168945 -76.90405273 126.13134766 C-69.37918187 121.83196006 -61.94370726 117.39724729 -54.57519531 112.83496094 C-51.29894052 110.8343919 -48.40310511 109.13131089 -44.73828125 107.9375 C-41.35297545 106.77847947 -39.66407743 105.13162916 -37.125 102.625 C-30.23069422 96.10258623 -22.65560143 90.59041409 -15 85 C-15 89.3007805 -17.59484655 91.07930791 -20.4375 94 C-25.1753707 98.98380276 -29.6083 104.06190216 -33.8671875 109.46484375 C-38.28158284 114.71199133 -42.1252651 118.43741055 -48.4375 121.375 C-49.84776031 122.04914965 -51.25646804 122.72655172 -52.6640625 123.40625 C-53.48165039 123.79941406 -54.29923828 124.19257813 -55.14160156 124.59765625 C-61.24726811 127.59312505 -67.27326971 130.74834214 -73.3125 133.875 C-74.67290924 134.57825224 -76.03334211 135.28145876 -77.39379883 135.98461914 C-84.98081695 139.90816896 -92.56198041 143.84284593 -100.125 147.8125 C-100.86919189 148.20228027 -101.61338379 148.59206055 -102.38012695 148.99365234 C-105.2547618 150.50862127 -108.05084129 152.03193513 -110.8046875 153.76171875 C-113 155 -113 155 -116 155 C-114.5007252 150.3081518 -111.73691647 146.96539789 -108.625 143.25 C-103.6924608 137.22613836 -99.09354744 131.05097794 -94.67163086 124.64428711 C-91.9072733 120.65354352 -89.06734822 116.75136458 -86.09765625 112.91015625 C-85.44716309 112.0603418 -84.79666992 111.21052734 -84.12646484 110.33496094 C-82.85840517 108.68530184 -81.5766367 107.04606748 -80.27978516 105.41894531 C-76.81664439 101.04837546 -76.81664439 101.04837546 -76.0390625 95.6953125 C-76.35617188 94.80585938 -76.67328125 93.91640625 -77 93 C-77.17917969 92.31035156 -77.35835938 91.62070313 -77.54296875 90.91015625 C-79.37891453 85.64711168 -82.14434783 81.9929084 -86 78 C-90.07242285 79.52830251 -91.73257834 82.06121829 -94.1875 85.5625 C-98.25859439 91.21218201 -102.63519818 96.50853801 -108 101 C-108.66 101 -109.32 101 -110 101 C-110 101.66 -110 102.32 -110 103 C-111.74285148 104.41644115 -113.54732215 105.75734466 -115.375 107.0625 C-123.94894961 113.33098742 -131.48730692 120.44938647 -138.9375 128 C-143.83937211 132.96787282 -148.87392673 137.52550576 -154.35546875 141.859375 C-157.17357174 144.14049825 -159.83493069 146.54225575 -162.5 149 C-166.9578056 153.10270302 -171.56215839 156.95302974 -176.28125 160.75 C-179.98289705 163.81343204 -183.4966566 167.06487058 -187.00390625 170.34765625 C-189 172 -189 172 -191 172 C-189.43178837 168.15075326 -186.94935623 165.87742071 -184 163 C-182.37365981 161.39719206 -180.74866944 159.79301339 -179.125 158.1875 C-177.92230469 157.00220703 -177.92230469 157.00220703 -176.6953125 155.79296875 C-174.64535352 153.66873589 -172.71589755 151.5309422 -170.79638672 149.29418945 C-167.21426667 145.18743728 -163.43950168 141.32687853 -159.5625 137.5 C-158.87873291 136.82001953 -158.19496582 136.14003906 -157.49047852 135.43945312 C-154.60262227 132.56774857 -151.70876925 129.70211562 -148.81542969 126.8359375 C-146.68734275 124.72607213 -144.56237083 122.61310355 -142.4375 120.5 C-141.79562744 119.86642578 -141.15375488 119.23285156 -140.49243164 118.58007812 C-137.41569329 115.51979721 -134.4509416 112.4155548 -131.6159668 109.12915039 C-125.00521365 101.47630466 -117.72554801 94.42208902 -110.60180664 87.25170898 C-108.73130823 85.36451116 -106.86554813 83.47387171 -105.00708008 81.57495117 C-102.31480033 78.82826282 -99.60676411 76.09806331 -96.89453125 73.37109375 C-96.0621846 72.51607773 -95.22983795 71.66106171 -94.37226868 70.78013611 C-93.59433456 70.00505203 -92.81640045 69.22996796 -92.01489258 68.43139648 C-91.33429276 67.74270981 -90.65369293 67.05402313 -89.95246887 66.34446716 C-88 65 -88 65 -85.86039734 65.22254944 C-83.92376715 66.03185732 -82.25882168 66.98176591 -80.5 68.125 C-77.37163094 70.19807473 -77.37163094 70.19807473 -75.0390625 69.87109375 C-72.34099158 68.71846958 -70.86399817 67.08153415 -68.875 64.9375 C-67.61987331 63.59001493 -66.33492972 62.26847218 -65 61 C-64.34 61 -63.68 61 -63 61 C-63 60.34 -63 59.68 -63 59 C-61.35648543 57.63823078 -59.68477344 56.31037934 -58 55 C-56.31237149 53.3545622 -54.6459651 51.68711423 -53 50 C-52.13375 49.154375 -51.2675 48.30875 -50.375 47.4375 C-48.00138243 45.11645367 -48.00138243 45.11645367 -46.3125 42.6875 C-45.879375 42.130625 -45.44625 41.57375 -45 41 C-44.34 41 -43.68 41 -43 41 C-43 40.34 -43 39.68 -43 39 C-41.35648543 37.63823078 -39.68477344 36.31037934 -38 35 C-36.31283007 33.35046211 -34.65219173 31.68415491 -33 30 C-29.94244739 26.89091357 -26.87874896 23.78800872 -23.8125 20.6875 C-22.99330078 19.85154297 -22.17410156 19.01558594 -21.33007812 18.15429688 C-20.54697266 17.36474609 -19.76386719 16.57519531 -18.95703125 15.76171875 C-18.24522705 15.03944092 -17.53342285 14.31716309 -16.80004883 13.57299805 C-15 12 -15 12 -13 12 C-13 11.34 -13 10.68 -13 10 C-11.35546875 8.37890625 -11.35546875 8.37890625 -9.1875 6.5625 C-6.17536735 4.02660668 -6.17536735 4.02660668 -3.36328125 1.27734375 C-2 0 -2 0 0 0 Z " fill="#67F5F9" transform="translate(215,102)"/>
<path d="M0 0 C3.71740936 1.57708276 6.24886971 3.88117313 9.1875 6.625 C9.94776489 7.33221191 9.94776489 7.33221191 10.72338867 8.05371094 C12.48692622 9.697549 14.24336883 11.34878487 16 13 C17.43996444 14.34650361 18.88007538 15.69285056 20.3203125 17.0390625 C21.81812808 18.44226041 23.31552647 19.84590379 24.8125 21.25 C25.51721436 21.91080566 26.22192871 22.57161133 26.94799805 23.25244141 C30.85372549 26.93031557 34.68478844 30.6676606 38.46606445 34.47314453 C40.31912854 36.31765556 42.22517396 38.08484388 44.1875 39.8125 C44.82042969 40.37582031 45.45335937 40.93914062 46.10546875 41.51953125 C46.73066406 42.00808594 47.35585938 42.49664062 48 43 C48.60457031 43.47695312 49.20914063 43.95390625 49.83203125 44.4453125 C52.22990406 45.31416882 52.22990406 45.31416882 55.09375 43.41015625 C56.23968888 42.64309507 57.37487701 41.85978103 58.5 41.0625 C64.26925253 37.01355747 64.26925253 37.01355747 67.10546875 36.9609375 C69.80627793 38.44220604 71.66985486 40.35236997 73.8125 42.5625 C74.699375 43.47515625 75.58625 44.3878125 76.5 45.328125 C79.06595965 48.07049437 81.5188925 50.88316866 83.95703125 53.73828125 C87.2383247 57.37091779 90.75033288 60.77008082 94.23046875 64.2109375 C97.78412979 67.73992034 101.15184361 71.35661581 104.39453125 75.17578125 C106.80781466 77.91788186 109.4294709 80.43824828 112.03125 83 C114.54610923 85.55477763 116.86153617 88.25389677 119.19140625 90.9765625 C121.81534897 93.91220468 124.64618465 96.62122333 127.49609375 99.3359375 C129 101 129 101 129 103 C129.66 103 130.32 103 131 103 C132.42993164 104.43359375 132.42993164 104.43359375 134.09765625 106.4375 C138.06480763 111.10304282 142.22690279 115.55441063 146.4375 120 C147.16904297 120.77472656 147.90058594 121.54945313 148.65429688 122.34765625 C150.43490214 124.233003 152.21681678 126.11709191 154 128 C153.67 128.66 153.34 129.32 153 130 C137.953125 116.20703125 137.953125 116.20703125 136.47314453 114.8503418 C135.48459172 113.94419569 134.49598424 113.03810921 133.50732422 112.13208008 C130.9801693 109.81600143 128.45400724 107.49885617 125.9296875 105.1796875 C125.41792969 104.70982422 124.90617188 104.23996094 124.37890625 103.75585938 C122.97887178 102.47037318 121.57926257 101.18442386 120.1796875 99.8984375 C118.39630853 98.26245996 116.59951051 96.6454676 114.78735352 95.04125977 C108.34368614 89.31856216 102.23652212 83.32362107 96.1875 77.1875 C94.3708901 75.34528601 92.5519599 73.50535655 90.73046875 71.66796875 C89.94051514 70.86641357 89.15056152 70.0648584 88.33666992 69.23901367 C86.00067863 66.92256322 86.00067863 66.92256322 83.2043457 64.83325195 C82.47691162 64.22827881 81.74947754 63.62330566 81 63 C81 62.34 81 61.68 81 61 C80.34 61 79.68 61 79 61 C77.484375 59.42578125 77.484375 59.42578125 75.75 57.3125 C72.74045531 53.76035397 69.66475465 50.86029631 66 48 C65.731875 48.680625 65.46375 49.36125 65.1875 50.0625 C64.31382891 52.22368639 63.33975333 54.34494692 62.3125 56.4375 C60.80436655 60.53100509 60.89533009 61.83662187 62 66 C63.4047532 68.96599351 65.05348351 71.75540263 66.75 74.5625 C67.18054688 75.30435547 67.61109375 76.04621094 68.0546875 76.81054688 C71.40864656 82.44901397 75.21919131 86.87699773 80.5625 90.75 C81.25085938 91.25660156 81.93921875 91.76320313 82.6484375 92.28515625 C83.42445313 92.85105469 84.20046875 93.41695313 85 94 C91.5577994 98.80091045 97.96926429 103.7057657 104.1875 108.9375 C104.75235107 109.41018311 105.31720215 109.88286621 105.89916992 110.36987305 C109.8763117 113.7526234 109.8763117 113.7526234 111 116 C107.8816299 115.35171771 105.40702281 114.27533495 102.62109375 112.7421875 C101.78731201 112.28448975 100.95353027 111.82679199 100.09448242 111.35522461 C99.21767822 110.86675049 98.34087402 110.37827637 97.4375 109.875 C96.53942627 109.37943604 95.64135254 108.88387207 94.71606445 108.37329102 C89.92754748 105.70954046 85.25892245 102.95744807 80.6875 99.9375 C77.76220387 98.00698625 75.85818995 96.96019367 72.4375 96 C68.12890197 94.74658966 65.23511558 92.50972122 61.62890625 89.89453125 C59.00145673 88.0010498 56.35203663 86.18457059 53.625 84.4375 C52.83351563 83.92058594 52.04203125 83.40367187 51.2265625 82.87109375 C49.01942606 81.73105622 49.01942606 81.73105622 46.8203125 82.74609375 C44.98192763 84.01244899 43.49979434 85.35022623 42 87 C41.01 86.505 41.01 86.505 40 86 C40.495 84.515 40.495 84.515 41 83 C38.69 84.32 36.38 85.64 34 87 C33.01 86.01 33.01 86.01 32 85 C32 84.01 32 83.02 32 82 C31.01 82.33 30.02 82.66 29 83 C30.79710635 78.9040571 33.51959246 76.23976953 36.63671875 73.09765625 C38.24778163 71.06096992 38.24778163 71.06096992 37.8984375 68.45703125 C36.92289778 65.7891422 35.99915838 64.55046683 33.9375 62.625 C33.30070312 62.02429688 32.66390625 61.42359375 32.0078125 60.8046875 C29.45535132 58.51045196 26.88313704 56.24257302 24.28515625 54 C20.52275872 50.70709823 16.85673417 47.30928532 13.1796875 43.921875 C11.00738643 41.92103585 8.82429298 39.93293559 6.6328125 37.953125 C6.0872168 37.45844727 5.54162109 36.96376953 4.97949219 36.45410156 C3.93292853 35.50563334 2.88419619 34.55955099 1.83300781 33.61621094 C-0.48882207 31.50617493 -2.24594445 29.63108332 -4 27 C2.17937918 29.19268293 7.73242859 32.68140067 13.37890625 35.96484375 C25.10877899 42.91024143 25.10877899 42.91024143 38 47 C32.55672602 40.56023008 26.72322289 34.57202454 20.75 28.625 C19.8528125 27.72394531 18.955625 26.82289063 18.03125 25.89453125 C17.17015625 25.03472656 16.3090625 24.17492187 15.421875 23.2890625 C14.64424805 22.51256348 13.86662109 21.73606445 13.06542969 20.93603516 C10.95415138 18.85075768 10.95415138 18.85075768 8 17 C8 16.34 8 15.68 8 15 C7.071875 14.566875 7.071875 14.566875 6.125 14.125 C4 13 4 13 2 11 C4.19878026 15.7640239 7.27207661 19.9485551 10.25 24.25 C12 27 12 27 12 29 C6.53774877 28.11134741 4.3047375 24.11497238 1 20 C-0.24910156 18.52080078 -0.24910156 18.52080078 -1.5234375 17.01171875 C-2.37175982 15.96774206 -3.21812982 14.92217578 -4.0625 13.875 C-4.85785156 12.90304688 -5.65320313 11.93109375 -6.47265625 10.9296875 C-8 8 -8 8 -7.24609375 4.6328125 C-6.83488281 3.76398438 -6.42367187 2.89515625 -6 2 C-4.7934375 1.7834375 -4.7934375 1.7834375 -3.5625 1.5625 C-1.07896294 1.25864751 -1.07896294 1.25864751 0 0 Z M-1 8 C-1 8.66 -1 9.32 -1 10 C-0.34 9.67 0.32 9.34 1 9 C0.34 8.67 -0.32 8.34 -1 8 Z M52.5625 56.0625 C48.75667496 58.71448077 45.38674813 58.00984486 40.9765625 57.359375 C39.99816406 57.18148437 39.99816406 57.18148437 39 57 C39 57.66 39 58.32 39 59 C40.32 59 41.64 59 43 59 C43.061875 59.556875 43.12375 60.11375 43.1875 60.6875 C44.33373872 63.94987173 46.49390197 65.68667874 49 68 C47.79618552 70.49361571 46.54571278 72.68143083 45 75 C46.0725 75.103125 47.145 75.20625 48.25 75.3125 C52.01746654 76.0032022 53.09682461 76.7742322 56 79 C58.66761764 79.25124826 58.66761764 79.25124826 61 79 C59.67567092 74.48524177 58.45062444 70.65090197 55.75 66.75 C54 64 54 64 54.1875 61.4375 C54.455625 60.633125 54.72375 59.82875 55 59 C55.185625 58.071875 55.37125 57.14375 55.5625 56.1875 C55.706875 55.465625 55.85125 54.74375 56 54 C54.59506272 53.89234296 54.59506272 53.89234296 52.5625 56.0625 Z " fill="#F9A7FB" transform="translate(239,127)"/>
<path d="M0 0 C6.17937918 2.19268293 11.73242859 5.68140067 17.37890625 8.96484375 C29.03735877 16.13704334 29.03735877 16.13704334 42 20 C42.33 19.34 42.66 18.68 43 18 C44.48847937 19.23889596 45.96550105 20.4915672 47.4375 21.75 C48.26121094 22.44609375 49.08492188 23.1421875 49.93359375 23.859375 C52.00676414 26.00700709 52.85677318 27.03582747 53 30 C52.34 30.66 51.68 31.32 51 32 C48.17042171 31.63723355 45.70915709 30.90305236 43 30 C43 30.66 43 31.32 43 32 C44.32 32 45.64 32 47 32 C48.5 34.25 48.5 34.25 50 37 C51.29579647 38.36984198 52.61992749 39.7151049 54 41 C52.84826645 43.46800047 51.95216435 45.04783565 50 47 C50.9075 47.103125 51.815 47.20625 52.75 47.3125 C56.09535596 48.02017145 57.36147017 48.97712713 60 51 C61.32 51 62.64 51 64 51 C61.8006072 44.56843049 61.8006072 44.56843049 58 39 C59.04874998 36.37812506 59.64931313 35.20628639 62.125 33.75 C62.74375 33.5025 63.3625 33.255 64 33 C64.556875 34.670625 64.556875 34.670625 65.125 36.375 C67.10908159 41.6565693 69.99612821 46.24694489 73 51 C73.45246094 51.78890625 73.90492188 52.5778125 74.37109375 53.390625 C78.18519354 59.74385637 82.86517406 63.00845837 89 67 C95.60364244 71.73366435 101.96984125 76.71153589 108.1875 81.9375 C108.75251221 82.41026367 109.31752441 82.88302734 109.8996582 83.37011719 C113.87653741 86.75307482 113.87653741 86.75307482 115 89 C111.8816299 88.35171771 109.40702281 87.27533495 106.62109375 85.7421875 C105.78731201 85.28448975 104.95353027 84.82679199 104.09448242 84.35522461 C103.21767822 83.86675049 102.34087402 83.37827637 101.4375 82.875 C100.53942627 82.37943604 99.64135254 81.88387207 98.71606445 81.37329102 C93.92754748 78.70954046 89.25892245 75.95744807 84.6875 72.9375 C81.76220387 71.00698625 79.85818995 69.96019367 76.4375 69 C72.12890197 67.74658966 69.23511558 65.50972122 65.62890625 62.89453125 C63.00145673 61.0010498 60.35203663 59.18457059 57.625 57.4375 C56.83351563 56.92058594 56.04203125 56.40367187 55.2265625 55.87109375 C53.01942606 54.73105622 53.01942606 54.73105622 50.8203125 55.74609375 C48.98192763 57.01244899 47.49979434 58.35022623 46 60 C45.01 59.505 45.01 59.505 44 59 C44.33 58.01 44.66 57.02 45 56 C41.535 57.98 41.535 57.98 38 60 C37.34 59.34 36.68 58.68 36 58 C36 57.01 36 56.02 36 55 C35.01 55.33 34.02 55.66 33 56 C34.79710635 51.9040571 37.51959246 49.23976953 40.63671875 46.09765625 C42.24778163 44.06096992 42.24778163 44.06096992 41.8984375 41.45703125 C40.92289778 38.7891422 39.99915838 37.55046683 37.9375 35.625 C37.30070312 35.02429688 36.66390625 34.42359375 36.0078125 33.8046875 C33.45535132 31.51045196 30.88313704 29.24257302 28.28515625 27 C24.52275872 23.70709823 20.85673417 20.30928532 17.1796875 16.921875 C15.00738643 14.92103585 12.82429298 12.93293559 10.6328125 10.953125 C10.0872168 10.45844727 9.54162109 9.96376953 8.97949219 9.45410156 C7.93292853 8.50563334 6.88419619 7.55955099 5.83300781 6.61621094 C3.51117793 4.50617493 1.75405555 2.63108332 0 0 Z " fill="#EE84F6" transform="translate(235,154)"/>
<path d="M0 0 C0 0.66 0 1.32 0 2 C0.88945312 2.39638672 0.88945312 2.39638672 1.796875 2.80078125 C4.08029054 4.04370425 5.47426723 5.30401646 7.25 7.1875 C9.7520532 9.77527665 12.31588833 12.17352014 15.0625 14.5 C18.79822618 17.71141373 21.88672148 21.18623381 25 25 C23.6875 26.5 23.6875 26.5 22 28 C21.01 28 20.02 28 19 28 C18.01 29.485 18.01 29.485 17 31 C12.43767521 29.439771 10.25763722 25.77817195 7.5 22.0625 C3.36774217 16.42013525 3.36774217 16.42013525 -2 12 C-2.78375 12.825 -3.5675 13.65 -4.375 14.5 C-7 17 -7 17 -9 17 C-9.495 18.485 -9.495 18.485 -10 20 C-10.66 20 -11.32 20 -12 20 C-12 20.66 -12 21.32 -12 22 C-12.680625 22.53625 -13.36125 23.0725 -14.0625 23.625 C-17.1345446 26.10878074 -19.47138032 28.77137574 -22.01953125 31.76953125 C-24.93840561 35.05686312 -28.10453742 38.07680213 -31.27734375 41.1171875 C-33.2250104 42.82060216 -33.2250104 42.82060216 -33 45 C-29.37 44.01 -25.74 43.02 -22 42 C-23.26747679 45.80243037 -24.55081132 46.21703681 -27.9375 48.25 C-31.64579587 50.52836173 -35.27083566 52.84523976 -38.8125 55.375 C-42.18816654 57.77547398 -45.62085117 60.03992048 -49.13037109 62.24023438 C-56.77479532 67.04046186 -64.4446682 72.11928736 -70.640625 78.7578125 C-72 80 -72 80 -74.5625 80 C-77 79 -77 79 -78.3125 76.6875 C-79 74 -79 74 -79 70 C-78.27167969 70.0928125 -77.54335937 70.185625 -76.79296875 70.28125 C-72.9612739 69.89540101 -71.86598662 68.30926881 -69.3125 65.5 C-67.90733423 63.9696682 -66.47631557 62.46181346 -65 61 C-64.34 61 -63.68 61 -63 61 C-63 60.34 -63 59.68 -63 59 C-61.35648543 57.63823078 -59.68477344 56.31037934 -58 55 C-56.31237149 53.3545622 -54.6459651 51.68711423 -53 50 C-51.700625 48.7315625 -51.700625 48.7315625 -50.375 47.4375 C-48.00138243 45.11645367 -48.00138243 45.11645367 -46.3125 42.6875 C-45.879375 42.130625 -45.44625 41.57375 -45 41 C-44.34 41 -43.68 41 -43 41 C-43 40.34 -43 39.68 -43 39 C-41.35648543 37.63823078 -39.68477344 36.31037934 -38 35 C-36.31283007 33.35046211 -34.65219173 31.68415491 -33 30 C-29.94244739 26.89091357 -26.87874896 23.78800872 -23.8125 20.6875 C-22.99330078 19.85154297 -22.17410156 19.01558594 -21.33007812 18.15429688 C-20.15541992 16.9699707 -20.15541992 16.9699707 -18.95703125 15.76171875 C-18.24522705 15.03944092 -17.53342285 14.31716309 -16.80004883 13.57299805 C-15 12 -15 12 -13 12 C-13 11.34 -13 10.68 -13 10 C-11.35546875 8.37890625 -11.35546875 8.37890625 -9.1875 6.5625 C-6.17536735 4.02660668 -6.17536735 4.02660668 -3.36328125 1.27734375 C-2 0 -2 0 0 0 Z " fill="#A7F2FC" transform="translate(215,102)"/>
<path d="M0 0 C0 4.3007805 -2.59484655 6.07930791 -5.4375 9 C-10.1753707 13.98380276 -14.6083 19.06190216 -18.8671875 24.46484375 C-23.28158284 29.71199133 -27.1252651 33.43741055 -33.4375 36.375 C-34.84776031 37.04914965 -36.25646804 37.72655172 -37.6640625 38.40625 C-38.89044434 38.99599609 -38.89044434 38.99599609 -40.14160156 39.59765625 C-46.24726811 42.59312505 -52.27326971 45.74834214 -58.3125 48.875 C-59.67290924 49.57825224 -61.03334211 50.28145876 -62.39379883 50.98461914 C-69.98081695 54.90816896 -77.56198041 58.84284593 -85.125 62.8125 C-85.86919189 63.20228027 -86.61338379 63.59206055 -87.38012695 63.99365234 C-90.2547618 65.50862127 -93.05084129 67.03193513 -95.8046875 68.76171875 C-98 70 -98 70 -101 70 C-99.45569514 65.10660028 -96.60021092 61.75189893 -93.375 57.875 C-88.85332009 52.36269511 -84.61944894 46.7861536 -80.62109375 40.87890625 C-79.81865234 39.94884766 -79.81865234 39.94884766 -79 39 C-78.01 39 -77.02 39 -76 39 C-75.01 38.505 -75.01 38.505 -74 38 C-73.34 39.65 -72.68 41.3 -72 43 C-72.66 43.66 -73.32 44.32 -74 45 C-74 45.99 -74 46.98 -74 48 C-70.91431365 46.25412652 -67.83156704 44.5031338 -64.75 42.75 C-63.3412561 41.94876709 -63.3412561 41.94876709 -61.90405273 41.13134766 C-54.37918187 36.83196006 -46.94370726 32.39724729 -39.57519531 27.83496094 C-36.29894052 25.8343919 -33.40310511 24.13131089 -29.73828125 22.9375 C-26.35297545 21.77847947 -24.66407743 20.13162916 -22.125 17.625 C-15.23069422 11.10258623 -7.65560143 5.59041409 0 0 Z " fill="#5AE8F9" transform="translate(200,187)"/>
<path d="M0 0 C-3.3680102 2.24534013 -5.46284352 2.52562813 -9.4375 3.0625 C-13.03139795 3.55722315 -16.49100048 4.09731034 -20 5 C-21.82726508 5.44429284 -23.65454548 5.88852296 -25.48196411 6.33218384 C-47.514415 11.51190344 -47.514415 11.51190344 -69.07470703 18.32299805 C-72.33935404 19.51632708 -74.44151246 20 -78 20 C-77.01 21.485 -77.01 21.485 -76 23 C-71.20411114 21.6143026 -66.45244427 20.22550823 -61.8125 18.375 C-58.24813779 16.98806067 -54.79439918 16.50114706 -51 16 C-49.33032028 15.3409159 -47.66392045 14.67349161 -46 14 C-41.34140823 12.74576376 -36.85492041 11.68677933 -32 12 C-32.33 12.66 -32.66 13.32 -33 14 C-35.65429688 14.83447266 -35.65429688 14.83447266 -39.21875 15.6640625 C-40.54424389 15.9801592 -41.8696809 16.29649447 -43.19506836 16.61303711 C-43.89663055 16.77754364 -44.59819275 16.94205017 -45.3210144 17.11154175 C-60.47188756 20.681708 -75.27058155 24.94970842 -90 30 C-91.01046387 30.34111816 -92.02092773 30.68223633 -93.06201172 31.03369141 C-111.33245061 37.23161087 -129.52637499 44.35603553 -146.58984375 53.41796875 C-150 55 -150 55 -153 54 C-146.24902593 48.37418827 -138.8874441 44.77251462 -131.02539062 40.98486328 C-128.03724359 39.53185157 -125.08434174 38.01064072 -122.125 36.5 C-108.30449043 29.62101334 -94.30771503 23.7938237 -79.66455078 18.90185547 C-76.95229961 17.98385512 -74.25546158 17.02858126 -71.55859375 16.06640625 C-55.91221734 10.56404333 -39.9972306 6.53791159 -23.83886719 2.87255859 C-21.25676915 2.28565842 -18.68111944 1.68598193 -16.10644531 1.06884766 C-14.87764648 0.78444824 -13.64884766 0.50004883 -12.3828125 0.20703125 C-10.75303467 -0.17811646 -10.75303467 -0.17811646 -9.09033203 -0.57104492 C-5.7911877 -1.02898429 -3.23657212 -0.71603158 0 0 Z " fill="#41E9F4" transform="translate(186,254)"/>
<path d="M0 0 C3.71740936 1.57708276 6.24886971 3.88117313 9.1875 6.625 C9.94776489 7.33221191 9.94776489 7.33221191 10.72338867 8.05371094 C12.48692622 9.697549 14.24336883 11.34878487 16 13 C17.43996444 14.34650361 18.88007538 15.69285056 20.3203125 17.0390625 C21.81812808 18.44226041 23.31552647 19.84590379 24.8125 21.25 C25.51721436 21.91080566 26.22192871 22.57161133 26.94799805 23.25244141 C30.8670579 26.94287019 34.71122685 30.68565228 38.46362305 34.54589844 C40.14309218 36.21750377 40.14309218 36.21750377 43 38 C43.875 39.875 43.875 39.875 44 42 C42.5625 44.25 42.5625 44.25 41 46 C36.31102704 44.57110227 33.47210082 41.85087967 30.1484375 38.40625 C29.60772614 37.85892212 29.06701477 37.31159424 28.50991821 36.74768066 C26.79099643 35.00544252 25.08259111 33.25333876 23.375 31.5 C21.65856305 29.74844536 19.9399809 27.999073 18.21865845 26.25231934 C17.15029295 25.16704003 16.08503406 24.07869155 15.02328491 22.98693848 C12.77237814 20.69066242 10.68815532 18.79210355 8 17 C8 16.34 8 15.68 8 15 C7.071875 14.566875 7.071875 14.566875 6.125 14.125 C4 13 4 13 2 11 C4.19878026 15.7640239 7.27207661 19.9485551 10.25 24.25 C12 27 12 27 12 29 C6.53774877 28.11134741 4.3047375 24.11497238 1 20 C-0.24910156 18.52080078 -0.24910156 18.52080078 -1.5234375 17.01171875 C-2.37175982 15.96774206 -3.21812982 14.92217578 -4.0625 13.875 C-4.85785156 12.90304688 -5.65320313 11.93109375 -6.47265625 10.9296875 C-8 8 -8 8 -7.24609375 4.6328125 C-6.83488281 3.76398438 -6.42367187 2.89515625 -6 2 C-4.7934375 1.7834375 -4.7934375 1.7834375 -3.5625 1.5625 C-1.07896294 1.25864751 -1.07896294 1.25864751 0 0 Z M-1 8 C-1 8.66 -1 9.32 -1 10 C-0.34 9.67 0.32 9.34 1 9 C0.34 8.67 -0.32 8.34 -1 8 Z " fill="#F4B4FC" transform="translate(239,127)"/>
<path d="M0 0 C0 0.66 0 1.32 0 2 C0.59296875 2.26425781 1.1859375 2.52851562 1.796875 2.80078125 C4.08029054 4.04370425 5.47426723 5.30401646 7.25 7.1875 C9.7520532 9.77527665 12.31588833 12.17352014 15.0625 14.5 C18.79822618 17.71141373 21.88672148 21.18623381 25 25 C23.6875 26.5 23.6875 26.5 22 28 C21.01 28 20.02 28 19 28 C18.34 28.99 17.68 29.98 17 31 C12.43767521 29.439771 10.25763722 25.77817195 7.5 22.0625 C3.36774217 16.42013525 3.36774217 16.42013525 -2 12 C-2.78375 12.825 -3.5675 13.65 -4.375 14.5 C-7 17 -7 17 -9 17 C-9.495 18.485 -9.495 18.485 -10 20 C-10.66 20 -11.32 20 -12 20 C-12 20.66 -12 21.32 -12 22 C-12.70125 22.556875 -13.4025 23.11375 -14.125 23.6875 C-17.56327758 26.45307109 -20.21727633 29.59570576 -23 33 C-23.66 32.34 -24.32 31.68 -25 31 C-24.01 30.67 -23.02 30.34 -22 30 C-21.31513275 28.67592331 -20.65129797 27.34090759 -20 26 C-19.319375 25.34 -18.63875 24.68 -17.9375 24 C-15.92392778 21.92147384 -15.40175906 20.81231342 -15 18 C-20.46401042 21.16337445 -24.48448246 25.39888161 -28.828125 29.953125 C-31 32 -31 32 -33 32 C-33.226875 32.556875 -33.45375 33.11375 -33.6875 33.6875 C-36.11420254 37.96311877 -39.43250373 41.13916819 -44 43 C-43.67587628 39.97484531 -43.10171348 39.08758661 -40.75 37.0625 C-39.8425 36.381875 -38.935 35.70125 -38 35 C-36.31093049 33.35182044 -34.65133063 31.6855118 -33 30 C-29.94262565 26.8907381 -26.87874883 23.78800859 -23.8125 20.6875 C-22.99330078 19.85154297 -22.17410156 19.01558594 -21.33007812 18.15429688 C-20.54697266 17.36474609 -19.76386719 16.57519531 -18.95703125 15.76171875 C-18.24522705 15.03944092 -17.53342285 14.31716309 -16.80004883 13.57299805 C-15 12 -15 12 -13 12 C-13 11.34 -13 10.68 -13 10 C-11.35546875 8.37890625 -11.35546875 8.37890625 -9.1875 6.5625 C-6.17536735 4.02660668 -6.17536735 4.02660668 -3.36328125 1.27734375 C-2 0 -2 0 0 0 Z " fill="#DFEDFC" transform="translate(215,102)"/>
<path d="M0 0 C6.17937918 2.19268293 11.73242859 5.68140067 17.37890625 8.96484375 C29.03735877 16.13704334 29.03735877 16.13704334 42 20 C42.33 19.34 42.66 18.68 43 18 C44.48847937 19.23889596 45.96550105 20.4915672 47.4375 21.75 C48.26121094 22.44609375 49.08492188 23.1421875 49.93359375 23.859375 C52.00676414 26.00700709 52.85677318 27.03582747 53 30 C51 32 51 32 48.90625 32.1171875 C48.1121875 32.03726563 47.318125 31.95734375 46.5 31.875 C45.7059375 31.81054688 44.911875 31.74609375 44.09375 31.6796875 C42 31 42 31 40.71875 28.9453125 C40.4815625 28.30335938 40.244375 27.66140625 40 27 C39.01 27 38.02 27 37 27 C38.12279462 27.98169476 39.24831473 28.96027298 40.375 29.9375 C41.00148438 30.48277344 41.62796875 31.02804688 42.2734375 31.58984375 C43.95632334 33.06958624 43.95632334 33.06958624 46 34 C45.34 35.32 44.68 36.64 44 38 C37.00040718 34.63450729 31.07002556 30.36800297 25.71484375 24.7578125 C24.04488587 23.04601057 22.31626553 21.49206705 20.5 19.9375 C16.26596733 16.28197872 12.16108709 12.49326196 8.0625 8.6875 C7.38703125 8.06415771 6.7115625 7.44081543 6.015625 6.79858398 C5.38269531 6.20891846 4.74976563 5.61925293 4.09765625 5.01171875 C3.52539307 4.48022217 2.95312988 3.94872559 2.36352539 3.40112305 C1 2 1 2 0 0 Z " fill="#F388F9" transform="translate(235,154)"/>
<path d="M0 0 C0.99 0.33 1.98 0.66 3 1 C3 1.66 3 2.32 3 3 C3.78375 2.484375 4.5675 1.96875 5.375 1.4375 C6.24125 0.963125 7.1075 0.48875 8 0 C8.66 0.33 9.32 0.66 10 1 C10.144375 1.58910156 10.28875 2.17820313 10.4375 2.78515625 C11.32345891 6.27361947 13.53754793 8.79829342 15.625 11.68359375 C17.09273326 14.15622393 17.60077302 16.17047879 18 19 C19.093125 18.484375 20.18625 17.96875 21.3125 17.4375 C25 16 25 16 28 17 C23.9315177 22.53362286 19.85762006 28.06321358 15.77832031 33.58886719 C14.26329158 35.64301653 12.75218715 37.69996718 11.2421875 39.7578125 C10.48164063 40.78648437 9.72109375 41.81515625 8.9375 42.875 C8.28652344 43.75929687 7.63554687 44.64359375 6.96484375 45.5546875 C4.81147857 48.23462111 2.46972396 50.61160144 0 53 C-0.66 52.01 -1.32 51.02 -2 50 C-2.99 50.66 -3.98 51.32 -5 52 C-4.44775406 48.180647 -3.45457211 45.80728 -1.1640625 42.71484375 C-0.59429687 41.93689453 -0.02453125 41.15894531 0.5625 40.35742188 C1.160625 39.55884766 1.75875 38.76027344 2.375 37.9375 C2.96539062 37.13505859 3.55578125 36.33261719 4.1640625 35.50585938 C8.56650402 29.53182556 8.56650402 29.53182556 10.70166016 26.91235352 C12.27520468 25.00525423 12.27520468 25.00525423 11.875 22.25 C9.85325147 14.74064831 7.46291634 9.65738909 2 4 C0.35 4.33 -1.3 4.66 -3 5 C-1.125 1.125 -1.125 1.125 0 0 Z " fill="#6FF1FA" transform="translate(127,176)"/>
<path d="M0 0 C8.09685993 0.41126908 16.03073379 2.28823911 23.9375 4 C24.6350943 4.15039734 25.3326886 4.30079468 26.05142212 4.45574951 C40.11834706 7.52484578 53.528799 11.92168041 67 17 C68.4275004 17.51677418 69.85577762 18.0314126 71.28515625 18.54296875 C76.67276865 20.51700937 81.44288999 22.48451513 86 26 C82.1857894 27.27140353 81.26666228 26.50026058 77.625 24.9375 C58.74766289 17.43629689 38.88535546 13.74241788 19 10 C19.33 9.34 19.66 8.68 20 8 C22.5625 7.375 22.5625 7.375 25 7 C24.05640625 6.81824219 24.05640625 6.81824219 23.09375 6.6328125 C19.00981956 5.83324781 14.95735313 5.01758175 10.9375 3.9375 C6.67319891 2.83000258 2.38117797 2.3853814 -2 2 C-1.34 1.34 -0.68 0.68 0 0 Z " fill="#E490ED" transform="translate(309,251)"/>
<path d="M0 0 C-0.99 0.66 -1.98 1.32 -3 2 C-0.36749612 3.31625194 0.80179056 2.74813658 3.625 2.0625 C4.44226563 1.86785156 5.25953125 1.67320312 6.1015625 1.47265625 C6.72804688 1.31667969 7.35453125 1.16070312 8 1 C5.12951175 3.87048825 1.59332334 4.57746586 -2.1875 5.8125 C-11.62784686 9.00561057 -20.81572429 12.70824307 -30 16.5625 C-30.65495453 16.8355899 -31.30990906 17.10867981 -31.98471069 17.39004517 C-39.70626908 20.61512684 -47.23984248 24.02530756 -54.609375 28.01147461 C-57 29 -57 29 -60 28 C-53.24902593 22.37418827 -45.8874441 18.77251462 -38.02539062 14.98486328 C-35.03724359 13.53185157 -32.08434174 12.01064072 -29.125 10.5 C-23.58326922 7.74190358 -18.00225352 5.07929902 -12.375 2.5 C-11.60430176 2.13712891 -10.83360352 1.77425781 -10.03955078 1.40039062 C-9.3123584 1.07232422 -8.58516602 0.74425781 -7.8359375 0.40625 C-7.19188965 0.11041016 -6.5478418 -0.18542969 -5.88427734 -0.49023438 C-3.59246699 -1.11025252 -2.2243799 -0.7428997 0 0 Z " fill="#33E8F0" transform="translate(93,280)"/>
<path d="M0 0 C3.73813345 1.43774363 5.91120581 3.84849875 8.53515625 6.7578125 C10.06124175 8.32338121 10.06124175 8.32338121 13 8 C14.82421875 9.53125 14.82421875 9.53125 16.6875 11.5 C17.31011719 12.1496875 17.93273437 12.799375 18.57421875 13.46875 C19.27998047 14.22671875 19.27998047 14.22671875 20 15 C18.6875 17 18.6875 17 17 19 C16.01 19 15.02 19 14 19 C13.34 19.99 12.68 20.98 12 22 C7.44662864 19.98888191 5.19871004 16.97026432 2.1875 13.125 C1.4150293 12.18720703 1.4150293 12.18720703 0.62695312 11.23046875 C0.14548828 10.62074219 -0.33597656 10.01101562 -0.83203125 9.3828125 C-1.27264893 8.82996582 -1.7132666 8.27711914 -2.16723633 7.70751953 C-3 6 -3 6 -2.76049805 3.91357422 C-2 2 -2 2 0 0 Z " fill="#D9DDFC" transform="translate(220,111)"/>
<path d="M0 0 C0.66 0.33 1.32 0.66 2 1 C-3.88081271 6.9690249 -9.72297757 12.89822672 -16.109375 18.33203125 C-19.57009817 21.38518992 -22.77684187 24.69969181 -26 28 C-21.99391138 28.89351254 -18.04989796 29.31297955 -13.9609375 29.6484375 C-12.56971071 29.76597774 -11.17851721 29.8839126 -9.78735352 30.00219727 C-9.06573029 30.06287384 -8.34410706 30.12355042 -7.60061646 30.18606567 C2.77597394 31.06694257 13.14280613 31.95944841 23.4375 33.5625 C24.19820801 33.67706543 24.95891602 33.79163086 25.74267578 33.90966797 C30.74283005 34.74283005 30.74283005 34.74283005 33 37 C29.94418433 37.89876932 28.34690417 38.12081489 25.296875 37.05859375 C21.56953906 35.86178328 18.28011134 35.62140805 14.375 35.4375 C7.37931034 35.09539542 7.37931034 35.09539542 5.04296875 34.5078125 C1.72811766 33.68385334 -1.66366332 33.6241148 -5.0625 33.4375 C-6.14241211 33.37272461 -6.14241211 33.37272461 -7.24414062 33.30664062 C-10.16739172 33.13564265 -13.07117303 33 -16 33 C-18.00349261 32.68834559 -20.00326516 32.35236497 -22 32 C-23.60875 31.814375 -23.60875 31.814375 -25.25 31.625 C-28 31 -28 31 -30 28 C-22.0353912 20.55314585 -14.0642795 13.11418271 -6.03833008 5.73339844 C-3.99332044 3.85092995 -1.96568522 1.96568522 0 0 Z " fill="#D375F2" transform="translate(276,215)"/>
<path d="M0 0 C3.81684226 1.55500981 6.19195732 4.03595495 9 7 C8.21625 7.2475 7.4325 7.495 6.625 7.75 C3.6083499 9.18650005 3.28434435 10.04720831 2 13 C2.70576172 13.88751953 2.70576172 13.88751953 3.42578125 14.79296875 C12 25.67494824 12 25.67494824 12 29 C6.53774877 28.11134741 4.3047375 24.11497238 1 20 C-0.24910156 18.52080078 -0.24910156 18.52080078 -1.5234375 17.01171875 C-2.37175982 15.96774206 -3.21812982 14.92217578 -4.0625 13.875 C-4.85785156 12.90304688 -5.65320313 11.93109375 -6.47265625 10.9296875 C-8 8 -8 8 -7.24609375 4.6328125 C-6.83488281 3.76398438 -6.42367187 2.89515625 -6 2 C-4.7934375 1.7834375 -4.7934375 1.7834375 -3.5625 1.5625 C-1.07896294 1.25864751 -1.07896294 1.25864751 0 0 Z M-1 8 C-1 8.66 -1 9.32 -1 10 C-0.34 9.67 0.32 9.34 1 9 C0.34 8.67 -0.32 8.34 -1 8 Z " fill="#E4C9FC" transform="translate(239,127)"/>
<path d="M0 0 C0.99 0.33 1.98 0.66 3 1 C3 1.66 3 2.32 3 3 C3.78375 2.484375 4.5675 1.96875 5.375 1.4375 C6.24125 0.963125 7.1075 0.48875 8 0 C8.66 0.33 9.32 0.66 10 1 C10.14308594 1.59167969 10.28617188 2.18335938 10.43359375 2.79296875 C11.12753228 5.49693613 12.39080152 7.0875207 14.0625 9.3125 C16.8566352 13.3931435 17.77443296 15.96618577 17 21 C15.77291445 25.57368249 13.0398287 28.44117616 10 32 C9.443125 32.928125 8.88625 33.85625 8.3125 34.8125 C7 37 7 37 5 38 C5.24741718 34.0413251 6.67417358 32.01824205 9.125 29.0625 C11.61904463 25.93437977 11.61904463 25.93437977 12.0625 22 C11.711875 21.01 11.36125 20.02 11 19 C10.81953125 18.37222656 10.6390625 17.74445313 10.453125 17.09765625 C8.7573662 11.71052007 5.89263751 8.03121036 2 4 C0.35 4.33 -1.3 4.66 -3 5 C-1.125 1.125 -1.125 1.125 0 0 Z " fill="#83F4FB" transform="translate(127,176)"/>
<path d="M0 0 C0.25 2.2421875 0.25 2.2421875 0 5 C-1.75 7.1328125 -1.75 7.1328125 -4 9.125 C-6.22453358 11.05007664 -6.22453358 11.05007664 -8 13 C-8 13.99 -8 14.98 -8 16 C-9.6475884 17.35683751 -11.31916921 18.68456721 -13 20 C-15.08434496 22.26495565 -17.05221006 24.6171367 -19 27 C-19.66 26.34 -20.32 25.68 -21 25 C-20.01 24.67 -19.02 24.34 -18 24 C-17.31513275 22.67592331 -16.65129797 21.34090759 -16 20 C-15.319375 19.34 -14.63875 18.68 -13.9375 18 C-11.92392778 15.92147384 -11.40175906 14.81231342 -11 12 C-16.46401042 15.16337445 -20.48448246 19.39888161 -24.828125 23.953125 C-27 26 -27 26 -29 26 C-29.226875 26.556875 -29.45375 27.11375 -29.6875 27.6875 C-32.11420254 31.96311877 -35.43250373 35.13916819 -40 37 C-39.67587628 33.97484531 -39.10171348 33.08758661 -36.75 31.0625 C-35.8425 30.381875 -34.935 29.70125 -34 29 C-32.31534443 27.34849507 -30.65460625 25.68113784 -29 24 C-27.74442237 22.74255749 -26.48783966 21.48611809 -25.23046875 20.23046875 C-24.56982422 19.56982422 -23.90917969 18.90917969 -23.22851562 18.22851562 C-20.15234375 15.15234375 -17.07617188 12.07617188 -14 9 C-13.67 9.66 -13.34 10.32 -13 11 C-12.29875 10.29875 -11.5975 9.5975 -10.875 8.875 C-10.42253906 8.42511719 -9.97007812 7.97523437 -9.50390625 7.51171875 C-8.4596661 6.46205398 -7.42652024 5.40128152 -6.40234375 4.33203125 C-2.21437055 0 -2.21437055 0 0 0 Z " fill="#CBEDFC" transform="translate(211,108)"/>
<path d="M0 0 C0.66 0.33 1.32 0.66 2 1 C1.25234375 1.80824219 0.5046875 2.61648437 -0.265625 3.44921875 C-1.26050237 4.52856684 -2.25528923 5.60799837 -3.25 6.6875 C-3.74113281 7.21794922 -4.23226562 7.74839844 -4.73828125 8.29492188 C-6.95250004 10.70103963 -9.05651154 13.07451714 -11.03515625 15.68359375 C-13.21166885 18.24954201 -15.29919968 19.66619317 -18.1875 21.375 C-22.79086226 24.17517356 -26.92543704 27.22630627 -31.02734375 30.71484375 C-33 32 -33 32 -37 32 C-36.343621 27.51474352 -35.29925791 23.33085971 -34 19 C-35.65 19.66 -37.3 20.32 -39 21 C-39.33 20.34 -39.66 19.68 -40 19 C-38.54634731 17.82750647 -37.08692581 16.66216184 -35.625 15.5 C-34.81289062 14.8503125 -34.00078125 14.200625 -33.1640625 13.53125 C-31 12 -31 12 -29 12 C-29.65271556 15.51705958 -30.51393024 18.89325077 -31.5625 22.3125 C-31.83191406 23.19550781 -32.10132813 24.07851562 -32.37890625 24.98828125 C-32.68634766 25.98408203 -32.68634766 25.98408203 -33 27 C-21.29235981 21.11661516 -11.98449795 13.68887115 -3.9609375 3.40625 C-2 1 -2 1 0 0 Z " fill="#AF6EF3" transform="translate(269,209)"/>
<path d="M0 0 C0 3 0 3 -2 6 C-2.66 6 -3.32 6 -4 6 C-4 6.66 -4 7.32 -4 8 C-5.65002828 9.35386936 -7.3174387 10.68678142 -9 12 C-9.33 12.66 -9.66 13.32 -10 14 C-10.66 14 -11.32 14 -12 14 C-12 14.66 -12 15.32 -12 16 C-8.01824456 13.89851796 -5.64960955 11.63094642 -3 8 C-2.01 8.33 -1.02 8.66 0 9 C-4.84062847 14.08401203 -9.88512711 18.60079934 -15.4140625 22.921875 C-18.98363785 25.79047634 -22.34647619 28.86637301 -25.734375 31.9453125 C-33.51330798 39 -33.51330798 39 -36 39 C-34.43178837 35.15075326 -31.94935623 32.87742071 -29 30 C-22.10867569 23.25515514 -22.10867569 23.25515514 -15.625 16.125 C-10.76026294 10.42798262 -5.33251998 5.25371426 0 0 Z " fill="#3DE9F0" transform="translate(60,235)"/>
<path d="M0 0 C2 1 4 2 6 3 C6.33 2.01 6.66 1.02 7 0 C8.00596297 0.9520721 9.00461563 1.91187346 10 2.875 C10.8353125 3.67550781 10.8353125 3.67550781 11.6875 4.4921875 C13 6 13 6 13 8 C13.66 8 14.32 8 15 8 C16.42993164 9.43359375 16.42993164 9.43359375 18.09765625 11.4375 C22.06480763 16.10304282 26.22690279 20.55441063 30.4375 25 C31.16904297 25.77472656 31.90058594 26.54945313 32.65429688 27.34765625 C34.43490214 29.233003 36.21681678 31.11709191 38 33 C37.505 33.99 37.505 33.99 37 35 C31.984375 30.40234375 26.96875 25.8046875 21.953125 21.20703125 C21.21944702 20.53462402 21.21944702 20.53462402 20.47094727 19.84863281 C19.48931337 18.94862524 18.50803139 18.0482337 17.52709961 17.14746094 C14.89738996 14.73361329 12.26048636 12.32825202 9.61328125 9.93359375 C9.06091797 9.43214844 8.50855469 8.93070313 7.93945312 8.4140625 C6.87654067 7.44940245 5.81152208 6.48705659 4.74414062 5.52734375 C1.1124622 2.2249244 1.1124622 2.2249244 0 0 Z " fill="#F5C5FA" transform="translate(355,222)"/>
<path d="M0 0 C0 4.30063044 -2.59467591 6.0795241 -5.4375 9 C-10.29186999 14.10087252 -14.80568953 19.31710605 -19.16015625 24.85546875 C-21 27 -21 27 -24 29 C-24 27.02 -24 25.04 -24 23 C-24.66 23 -25.32 23 -26 23 C-24.44609661 19.00555423 -21.9074549 16.98757151 -18.625 14.3125 C-18.10131836 13.88404785 -17.57763672 13.4555957 -17.03808594 13.01416016 C-11.48587584 8.50856977 -5.76336627 4.23055609 0 0 Z " fill="#8EB7F9" transform="translate(200,187)"/>
<path d="M0 0 C6.48329773 0.20913864 11.94207984 1.82689121 18.0078125 4.0625 C21.01069553 5.10014221 21.01069553 5.10014221 24.30078125 5.41796875 C28.85149254 6.13397296 32.79802869 7.61595887 37.0625 9.3125 C37.83916016 9.60833984 38.61582031 9.90417969 39.41601562 10.20898438 C44.0430163 12.0229567 47.97469002 14.08245533 52 17 C48.1857894 18.27140353 47.26666228 17.50026058 43.625 15.9375 C37.58965244 13.5097984 31.50784383 11.586199 25.25 9.8125 C24.37553223 9.56298584 23.50106445 9.31347168 22.60009766 9.05639648 C17.10034603 7.514949 11.58565874 6.19288866 6 5 C6 4.34 6 3.68 6 3 C3.36 2.67 0.72 2.34 -2 2 C-1.34 1.34 -0.68 0.68 0 0 Z " fill="#F098F5" transform="translate(343,260)"/>
<path d="M0 0 C2.19178772 0.34567261 2.19178772 0.34567261 4 1 C-9.66666667 14.66666667 -23.33333333 28.33333333 -37 42 C-37.66 41.67 -38.32 41.34 -39 41 C-38.52949219 40.55269531 -38.05898437 40.10539062 -37.57421875 39.64453125 C-36.95160156 39.03996094 -36.32898438 38.43539062 -35.6875 37.8125 C-35.07261719 37.22082031 -34.45773438 36.62914062 -33.82421875 36.01953125 C-31.93843305 34.08736276 -31.93843305 34.08736276 -30.79199219 31.80297852 C-28.44117945 28.12591025 -25.56765253 25.22365717 -22.50390625 22.1328125 C-21.87395248 21.49383026 -21.24399872 20.85484802 -20.59495544 20.19650269 C-19.26712039 18.85421085 -17.93649993 17.51466937 -16.60327148 16.17773438 C-14.56049977 14.12298804 -12.53712497 12.05031362 -10.51367188 9.9765625 C-9.21990087 8.67333564 -7.92501684 7.37121258 -6.62890625 6.0703125 C-5.72248131 5.13458908 -5.72248131 5.13458908 -4.79774475 4.17996216 C-3.06860352 2.46923828 -3.06860352 2.46923828 0 0 Z " fill="#74F5FA" transform="translate(127,167)"/>
<path d="M0 0 C0.24363281 0.51691406 0.48726563 1.03382813 0.73828125 1.56640625 C1.7458373 3.50977287 2.8483178 5.40382374 3.98046875 7.27734375 C4.33947266 7.87353516 4.69847656 8.46972656 5.06835938 9.08398438 C5.8158815 10.32202712 6.57378627 11.55385863 7.34179688 12.77929688 C9.08823647 15.71749924 10.0458535 17.48466142 9.73828125 20.94140625 C9.49464844 21.62074219 9.25101562 22.30007812 9 23 C8.01 23 7.02 23 6 23 C5.34 22.01 4.68 21.02 4 20 C3.01 19.34 2.02 18.68 1 18 C0.15625 16.1953125 0.15625 16.1953125 -0.5 14.125 C-1.589121 10.95560026 -2.76520486 8.55405159 -5 6 C-3.63016497 2.83884224 -3.0109362 2.0072908 0 0 Z " fill="#F490F7" transform="translate(298,187)"/>
<path d="M0 0 C3.4247378 0.33666914 5.4399555 1.90121224 8.0390625 4.0546875 C8.78414063 4.66957031 9.52921875 5.28445312 10.296875 5.91796875 C11.44929688 6.88669922 11.44929688 6.88669922 12.625 7.875 C13.40101563 8.51308594 14.17703125 9.15117187 14.9765625 9.80859375 C20.72721185 14.59081778 20.72721185 14.59081778 23 18 C17.801646 16.9254799 13.43551689 14.20234311 8.8125 11.6875 C7.88501953 11.20087891 6.95753906 10.71425781 6.00195312 10.21289062 C5.12087891 9.73400391 4.23980469 9.25511719 3.33203125 8.76171875 C2.52483643 8.32819092 1.7176416 7.89466309 0.88598633 7.44799805 C-1 6 -1 6 -1.89575195 3.95239258 C-1.93015381 3.30810303 -1.96455566 2.66381348 -2 2 C-1.34 1.34 -0.68 0.68 0 0 Z " fill="#EC89F3" transform="translate(327,225)"/>
<path d="M0 0 C-3.3680102 2.24534013 -5.46284352 2.52562813 -9.4375 3.0625 C-13.02985041 3.55701012 -16.49380449 4.08928978 -20 5 C-21.47351929 5.37427124 -21.47351929 5.37427124 -22.97680664 5.75610352 C-24.10981201 6.04412842 -25.24281738 6.33215332 -26.41015625 6.62890625 C-28.30666387 7.10822162 -30.20317561 7.58752102 -32.09985352 8.06616211 C-33.41039341 8.39758736 -34.72061494 8.730274 -36.03051758 9.06420898 C-37.9270527 9.54743444 -39.82483936 10.02573955 -41.72265625 10.50390625 C-42.85453369 10.79080322 -43.98641113 11.0777002 -45.15258789 11.37329102 C-48 12 -48 12 -51 12 C-51 11.34 -51 10.68 -51 10 C-42.67130626 7.32939295 -34.20511339 5.33131678 -25.6875 3.375 C-24.33001369 3.06017353 -22.97259138 2.74507099 -21.61523438 2.4296875 C-18.07884351 1.61058551 -14.54225164 0.79348624 -11 0 C-10.10514893 -0.20544434 -9.21029785 -0.41088867 -8.28833008 -0.62255859 C-5.34853769 -1.1074534 -2.89625847 -0.60619363 0 0 Z " fill="#56DCEF" transform="translate(186,254)"/>
<path d="M0 0 C1 3 1 3 0.5625 5.375 C-1.76619959 9.28721531 -5.06212465 10.87272119 -9 13 C-10.10601562 13.61294922 -10.10601562 13.61294922 -11.234375 14.23828125 C-13.1164511 15.23770487 -15.05546468 16.12831175 -17 17 C-17.66 16.67 -18.32 16.34 -19 16 C-16.32461209 13.71805148 -13.93266538 11.96762759 -10.75 10.4375 C-7.69646316 9.24647855 -7.69646316 9.24647855 -7 6 C-8.65 6 -10.3 6 -12 6 C-12.33 5.01 -12.66 4.02 -13 3 C-3.44262295 -1.14754098 -3.44262295 -1.14754098 0 0 Z " fill="#73BAF9" transform="translate(176,210)"/>
<path d="M0 0 C9.21445348 3.26964478 17.6121936 9.07517966 26 14 C25.67 14.66 25.34 15.32 25 16 C21.51460083 15.35455571 18.97180943 13.89865603 16 12 C16.66 13.65 17.32 15.3 18 17 C11.296662 12.39379567 5.50154581 6.98631316 0 1 C0 0.67 0 0.34 0 0 Z " fill="#F3ADFA" transform="translate(235,154)"/>
<path d="M0 0 C-9.9 4.95 -9.9 4.95 -20 10 C-19.67 10.66 -19.34 11.32 -19 12 C-22.09647525 13.53687482 -25.20325282 15.05165282 -28.3125 16.5625 C-29.19357422 17.00013672 -30.07464844 17.43777344 -30.98242188 17.88867188 C-31.82998047 18.29794922 -32.67753906 18.70722656 -33.55078125 19.12890625 C-34.33106689 19.51119385 -35.11135254 19.89348145 -35.9152832 20.28735352 C-38 21 -38 21 -41 20 C-34.26641852 14.3886821 -26.93336527 10.79920993 -19.09130859 7.02441406 C-17.02859158 6.0140054 -14.99117601 4.96505637 -12.95703125 3.8984375 C-12.32168457 3.56835693 -11.68633789 3.23827637 -11.03173828 2.89819336 C-9.28316931 1.98733568 -7.53796679 1.07002396 -5.79296875 0.15234375 C-3 -1 -3 -1 0 0 Z " fill="#27DDE7" transform="translate(74,288)"/>
<path d="M0 0 C0.66 0.33 1.32 0.66 2 1 C-3.88081271 6.9690249 -9.72297757 12.89822672 -16.109375 18.33203125 C-19.57009817 21.38518992 -22.77684187 24.69969181 -26 28 C-23.69 28.66 -21.38 29.32 -19 30 C-22 32 -22 32 -25.0625 31.8125 C-28 31 -28 31 -30 28 C-22.0353912 20.55314585 -14.0642795 13.11418271 -6.03833008 5.73339844 C-3.99332044 3.85092995 -1.96568522 1.96568522 0 0 Z " fill="#D36AEF" transform="translate(276,215)"/>
<path d="M0 0 C-1.30665133 3.919954 -2.94421966 4.45926359 -6.4375 6.5625 C-10.46127259 8.97190547 -10.46127259 8.97190547 -14 12 C-16.125 11.625 -16.125 11.625 -18 11 C-17.34 11 -16.68 11 -16 11 C-16 10.01 -16 9.02 -16 8 C-16.66 7.34 -17.32 6.68 -18 6 C-16.68 4.68 -15.36 3.36 -14 2 C-13.01 2.33 -12.02 2.66 -11 3 C-8.75360973 2.46830678 -8.75360973 2.46830678 -6.4375 1.5625 C-2.17040359 0 -2.17040359 0 0 0 Z " fill="#B6E8FD" transform="translate(193,144)"/>
<path d="M0 0 C0.99 0.33 1.98 0.66 3 1 C1.37412795 2.72748905 -0.28825454 4.36046216 -2 6 C-2.48855469 6.53882813 -2.97710937 7.07765625 -3.48046875 7.6328125 C-10.20089787 13.99953482 -19.28951553 12.98138785 -28 13 C-25.59117252 10.59117252 -23.92106951 10.59704275 -20.64135742 10.16308594 C-12.70481137 9.09534858 -7.82679619 7.28281076 -1.91796875 1.546875 C-1.28503906 1.03640625 -0.65210938 0.5259375 0 0 Z " fill="#8B8BF5" transform="translate(212,241)"/>
<path d="M0 0 C2.5888689 1.94165167 4.77716149 4.15367046 7 6.5 C6.21625 6.78875 5.4325 7.0775 4.625 7.375 C1.90328368 8.34912254 1.90328368 8.34912254 0 10.5 C-0.78375 9.860625 -1.5675 9.22125 -2.375 8.5625 C-4.79539281 6.51857687 -4.79539281 6.51857687 -7 5.5 C-7 4.51 -7 3.52 -7 2.5 C-2.97368421 -0.74342105 -2.97368421 -0.74342105 0 0 Z " fill="#E3CEFD" transform="translate(241,127.5)"/>
<path d="M0 0 C0.58910156 0.21269531 1.17820312 0.42539063 1.78515625 0.64453125 C0.13423847 4.93691748 -2.95238941 7.52392275 -6.21484375 10.64453125 C-6.87484375 10.31453125 -7.53484375 9.98453125 -8.21484375 9.64453125 C-7.88484375 8.65453125 -7.55484375 7.66453125 -7.21484375 6.64453125 C-9.52484375 7.96453125 -11.83484375 9.28453125 -14.21484375 10.64453125 C-14.21484375 9.32453125 -14.21484375 8.00453125 -14.21484375 6.64453125 C-13.53421875 6.41765625 -12.85359375 6.19078125 -12.15234375 5.95703125 C-8.98244757 4.54069466 -6.6311161 2.75948895 -3.9609375 0.5703125 C-2.21484375 -0.35546875 -2.21484375 -0.35546875 0 0 Z " fill="#EB76F7" transform="translate(287.21484375,203.35546875)"/>
<path d="M0 0 C0.66 0.33 1.32 0.66 2 1 C1.25234375 1.80824219 0.5046875 2.61648437 -0.265625 3.44921875 C-1.26050237 4.52856684 -2.25528923 5.60799837 -3.25 6.6875 C-3.74113281 7.21794922 -4.23226563 7.74839844 -4.73828125 8.29492188 C-6.96365672 10.71316321 -9.08915389 13.11495724 -11.10546875 15.71484375 C-12.96252844 17.95480234 -14.60328457 19.34924399 -17.0625 20.875 C-17.73410156 21.30554688 -18.40570313 21.73609375 -19.09765625 22.1796875 C-21 23 -21 23 -24 22 C-23.24976563 21.48953125 -22.49953125 20.9790625 -21.7265625 20.453125 C-14.65894163 15.43279985 -9.29441044 10.24138037 -3.9609375 3.40625 C-2 1 -2 1 0 0 Z " fill="#C865EE" transform="translate(269,209)"/>
<path d="M0 0 C2.18188477 0.35302734 2.18188477 0.35302734 4 1 C-1.66666667 6.66666667 -7.33333333 12.33333333 -13 18 C-13.66 17.67 -14.32 17.34 -15 17 C-12.60534131 12.54212326 -9.58836393 9.1895153 -6.0625 5.625 C-5.53720703 5.06683594 -5.01191406 4.50867188 -4.47070312 3.93359375 C-2.91015625 2.3515625 -2.91015625 2.3515625 0 0 Z " fill="#90F3F9" transform="translate(127,167)"/>
<path d="M0 0 C1.39828267 0.51864187 2.79264942 1.04792478 4.18359375 1.5859375 C4.90289062 1.85937988 5.6221875 2.13282227 6.36328125 2.41455078 C11.71416381 4.49585127 16.75048564 6.90327797 21.62109375 9.9609375 C17.64815746 11.2852496 16.19745355 10.22792323 12.37109375 8.6484375 C7.81425455 6.81551894 3.37608477 5.17733055 -1.37890625 3.9609375 C-1.37890625 3.3009375 -1.37890625 2.6409375 -1.37890625 1.9609375 C-2.69890625 1.3009375 -4.01890625 0.6409375 -5.37890625 -0.0390625 C-3.37890625 -1.0390625 -3.37890625 -1.0390625 0 0 Z " fill="#EEB9F7" transform="translate(373.37890625,267.0390625)"/>
<path d="M0 0 C0 0.66 0 1.32 0 2 C-7.66157303 4.85335921 -15.36142815 7.50823422 -23.1875 9.875 C-23.91767334 10.1021167 -24.64784668 10.3292334 -25.40014648 10.56323242 C-30.64644627 12.11785124 -30.64644627 12.11785124 -34 11 C-26.36381534 7.90165578 -18.66676515 5.17281018 -10.8125 2.6875 C-9.97485107 2.42114746 -9.13720215 2.15479492 -8.27416992 1.88037109 C-2.25710589 0 -2.25710589 0 0 0 Z " fill="#48E1EC" transform="translate(135,264)"/>
<path d="M0 0 C-7.61623643 5.9558247 -16.95216958 11.53947522 -26 15 C-26.66 14.67 -27.32 14.34 -28 14 C-24.50248371 11.83233782 -20.99703448 9.67821793 -17.48364258 7.53637695 C-16.28931971 6.80569227 -15.09723913 6.07132939 -13.9074707 5.33325195 C-12.19814769 4.27374244 -10.48003767 3.2284505 -8.76171875 2.18359375 C-7.73006592 1.54993896 -6.69841309 0.91628418 -5.63549805 0.26342773 C-3 -1 -3 -1 0 0 Z " fill="#68E4F6" transform="translate(165,215)"/>
<path d="M0 0 C0 4.08309198 -2.07742216 5.8182655 -4.6875 8.6875 C-5.12255859 9.19861328 -5.55761719 9.70972656 -6.00585938 10.23632812 C-8.24256338 12.71824116 -9.45517427 13.93612388 -12.83203125 14.33203125 C-13.54746094 14.22246094 -14.26289063 14.11289063 -15 14 C-13.45771856 9.59935696 -9.98573023 7.40404102 -6.375 4.75 C-5.76398438 4.29109375 -5.15296875 3.8321875 -4.5234375 3.359375 C-3.0209208 2.23248748 -1.51115591 1.11527563 0 0 Z " fill="#BBB7FC" transform="translate(200,187)"/>
<path d="M0 0 C0.721875 0.09853271 1.44375 0.19706543 2.1875 0.29858398 C3.3940625 0.46318115 3.3940625 0.46318115 4.625 0.63110352 C8.83651753 1.31082062 13.01265039 2.10617575 17.1875 2.98217773 C18.04472656 3.15168945 18.90195312 3.32120117 19.78515625 3.49584961 C20.59855469 3.66536133 21.41195313 3.83487305 22.25 4.00952148 C22.98347656 4.16026123 23.71695312 4.31100098 24.47265625 4.46630859 C26.1875 5.04467773 26.1875 5.04467773 27.1875 7.04467773 C20.43880485 6.66612423 14.32759521 5.65524538 7.84765625 3.74389648 C3.97271351 2.72537262 0.17585377 2.37159198 -3.8125 2.04467773 C-1.8125 0.04467773 -1.8125 0.04467773 0 0 Z " fill="#E57EEF" transform="translate(310.8125,250.955322265625)"/>
<path d="M0 0 C0.33 0.66 0.66 1.32 1 2 C-4.34388455 8.33480354 -10.08833812 14.19539034 -16 20 C-16.33 19.01 -16.66 18.02 -17 17 C-11.39 11.39 -5.78 5.78 0 0 Z " fill="#51EFF3" transform="translate(78,217)"/>
<path d="M0 0 C1 3 1 3 0.0625 5.1875 C-0.4634375 6.0846875 -0.4634375 6.0846875 -1 7 C-0.071875 6.484375 0.85625 5.96875 1.8125 5.4375 C5 4 5 4 8 5 C5.89983377 6.17441535 3.79541245 7.33964012 1.6875 8.5 C1.09259766 8.83386719 0.49769531 9.16773438 -0.11523438 9.51171875 C-2.95828844 11.06825114 -4.70660988 12 -8 12 C-6.49087042 7.01987239 -3.44338151 3.75740058 0 0 Z " fill="#43E3EB" transform="translate(107,245)"/>
<path d="M0 0 C-1.32 0.33 -2.64 0.66 -4 1 C-4 1.99 -4 2.98 -4 4 C-5.89091736 4.84442881 -7.78797515 5.67511587 -9.6875 6.5 C-11.27111328 7.19609375 -11.27111328 7.19609375 -12.88671875 7.90625 C-15.85627816 8.94950801 -17.89195063 9.23065301 -21 9 C-17.58158468 6.22414395 -13.85124966 4.22516338 -9.9375 2.25 C-9.31294922 1.92128906 -8.68839844 1.59257812 -8.04492188 1.25390625 C-3.35529819 -1.11843273 -3.35529819 -1.11843273 0 0 Z " fill="#20EBF6" transform="translate(73,290)"/>
<path d="M0 0 C1.4540625 0.495 1.4540625 0.495 2.9375 1 C5.62149574 2.05173363 5.62149574 2.05173363 7 2 C7.33 1.34 7.66 0.68 8 0 C9.62918007 1.26547013 11.25320642 2.53757728 12.875 3.8125 C13.77992188 4.52019531 14.68484375 5.22789062 15.6171875 5.95703125 C18 8 18 8 20 11 C17.04703576 10.37666027 14.72453208 9.43098208 12.109375 7.93359375 C11.40039062 7.53076172 10.69140625 7.12792969 9.9609375 6.71289062 C9.23132813 6.29201172 8.50171875 5.87113281 7.75 5.4375 C7.00492187 5.01275391 6.25984375 4.58800781 5.4921875 4.15039062 C3.65901039 3.10453958 1.82917323 2.05283808 0 1 C0 0.67 0 0.34 0 0 Z " fill="#E18AEA" transform="translate(330,232)"/>
<path d="M0 0 C0.66 0 1.32 0 2 0 C3.47265625 1.609375 3.47265625 1.609375 5.0625 3.75 C5.85333984 4.79414063 5.85333984 4.79414063 6.66015625 5.859375 C7.96931568 7.95097666 8.56033954 9.59000935 9 12 C5.52424872 11.43206678 3.97503634 10.33831755 1.6875 7.6875 C1.15511719 7.09324219 0.62273437 6.49898437 0.07421875 5.88671875 C-1 4 -1 4 -0.66796875 1.76953125 C-0.44753906 1.18558594 -0.22710937 0.60164062 0 0 Z " fill="#EEB2FE" transform="translate(242,144)"/>
<path d="M0 0 C8.7641489 -0.25819097 17.4388415 -0.09819618 26 2 C26.66 2.66 27.32 3.32 28 4 C24.94535658 4.89842453 23.35146299 5.12326673 20.3046875 4.0546875 C15.34947883 2.47323792 10.43397731 2.54643048 5.265625 2.34375 C2 2 2 2 0 0 Z " fill="#E170F5" transform="translate(281,248)"/>
<path d="M0 0 C-3.35391886 2.23594591 -5.41872026 2.52383033 -9.375 3.0625 C-14.05383119 3.69689624 -14.05383119 3.69689624 -18.6640625 4.68359375 C-21.48702037 5.06596764 -22.55780057 4.34330616 -25 3 C-21.96226226 2.29431292 -18.91940628 1.61378673 -15.875 0.9375 C-15.0190625 0.73833984 -14.163125 0.53917969 -13.28125 0.33398438 C-8.52675747 -0.70834668 -4.81896722 -1.25609146 0 0 Z " fill="#69BFF1" transform="translate(186,254)"/>
<path d="M0 0 C1.75215106 0.93347358 3.50163563 1.8719532 5.25 2.8125 C6.71179688 3.59560547 6.71179688 3.59560547 8.203125 4.39453125 C10.63355412 5.78965188 12.80787699 7.26195961 15 9 C13.1875 9.6875 13.1875 9.6875 11 10 C9.97803008 9.02246356 8.98020375 8.0194119 8 7 C6.34178227 6.62690101 4.67422986 6.29299023 3 6 C2.01 5.34 1.02 4.68 0 4 C0 2.68 0 1.36 0 0 Z " fill="#F19BF9" transform="translate(246,160)"/>
<path d="M0 0 C0 3 0 3 -2 5.1875 C-2.66 5.785625 -3.32 6.38375 -4 7 C-1.69 7.66 0.62 8.32 3 9 C0 11 0 11 -3.0625 10.8125 C-6 10 -6 10 -8 7 C-5.36 4.69 -2.72 2.38 0 0 Z " fill="#B661F0" transform="translate(254,236)"/>
<path d="M0 0 C-0.54723683 3.37462715 -1.0549 5.08235 -3 8 C-3.99 8.495 -3.99 8.495 -5 9 C-5 8.34 -5 7.68 -5 7 C-6.65 7.66 -8.3 8.32 -10 9 C-10.33 8.34 -10.66 7.68 -11 7 C-9.54634731 5.82750647 -8.08692581 4.66216184 -6.625 3.5 C-5.40683594 2.52546875 -5.40683594 2.52546875 -4.1640625 1.53125 C-2 0 -2 0 0 0 Z " fill="#BF75F1" transform="translate(240,221)"/>
<path d="M0 0 C2 1 4 2 6 3 C6.33 2.01 6.66 1.02 7 0 C8.98 1.98 10.96 3.96 13 6 C12.67 6.99 12.34 7.98 12 9 C11.401875 8.505 10.80375 8.01 10.1875 7.5 C8.02970006 5.71723582 8.02970006 5.71723582 5 6 C3.0750353 4.17806158 1.62464469 2.10764717 0 0 Z " fill="#F7BEFA" transform="translate(355,222)"/>
<path d="M0 0 C0.33 1.32 0.66 2.64 1 4 C-0.61949042 5.50594681 -2.24575974 7.00460668 -3.875 8.5 C-4.77992187 9.3353125 -5.68484375 10.170625 -6.6171875 11.03125 C-9 13 -9 13 -11 13 C-9.43638038 9.16202456 -6.97489917 6.8332373 -4 4 C-3.236875 3.236875 -2.47375 2.47375 -1.6875 1.6875 C-1.130625 1.130625 -0.57375 0.57375 0 0 Z " fill="#31D6E1" transform="translate(35,261)"/>
<path d="M0 0 C5.91712679 4.15457839 11.01139933 8.77258334 16 14 C15.67 14.66 15.34 15.32 15 16 C13.06172464 14.23000902 11.12435656 12.45904239 9.1875 10.6875 C8.64029297 10.18798828 8.09308594 9.68847656 7.52929688 9.17382812 C6.01473517 7.78777469 4.50712253 6.39413878 3 5 C2.37738281 4.42894531 1.75476563 3.85789063 1.11328125 3.26953125 C0 2 0 2 0 0 Z " fill="#E6C7F4" transform="translate(377,241)"/>
<path d="M0 0 C0 3 0 3 -2 6 C-2.66 6 -3.32 6 -4 6 C-4 6.66 -4 7.32 -4 8 C-5.64351457 9.36176922 -7.31522656 10.68962066 -9 12 C-10.68528688 13.64783606 -12.35697047 15.31002677 -14 17 C-14 14 -14 14 -12.71484375 12.37426758 C-12.12832031 11.80345459 -11.54179688 11.2326416 -10.9375 10.64453125 C-10.30585937 10.02255859 -9.67421875 9.40058594 -9.0234375 8.75976562 C-8.35570312 8.11716797 -7.68796875 7.47457031 -7 6.8125 C-6.33226562 6.15830078 -5.66453125 5.50410156 -4.9765625 4.83007812 C-3.32421559 3.21313865 -1.66528399 1.60359509 0 0 Z " fill="#47E6EA" transform="translate(60,235)"/>
<path d="M0 0 C-2.13802098 2.32509781 -4.18598137 3.82167236 -7 5.25 C-8.0209375 5.78367187 -8.0209375 5.78367187 -9.0625 6.328125 C-11 7 -11 7 -14 6 C-12.73299277 5.0158875 -11.4612381 4.03788503 -10.1875 3.0625 C-9.47980469 2.51722656 -8.77210937 1.97195313 -8.04296875 1.41015625 C-4.92775218 -0.74011752 -3.65000286 -1.21666762 0 0 Z " fill="#1ECDDA" transform="translate(47,302)"/>
<path d="M0 0 C0.66 0.33 1.32 0.66 2 1 C-0.07417396 3.11200084 -2.20510164 5.11847381 -4.4375 7.0625 C-5.01371094 7.56910156 -5.58992187 8.07570312 -6.18359375 8.59765625 C-8.03843923 10.02967674 -9.87521413 11.02399946 -12 12 C-12 11.01 -12 10.02 -12 9 C-10.03123367 7.30369687 -8.11326838 5.80463882 -6 4.3125 C-5.42765625 3.89677734 -4.8553125 3.48105469 -4.265625 3.05273438 C-2.85003468 2.02643139 -1.42580369 1.01206601 0 0 Z " fill="#9D77F1" transform="translate(228,229)"/>
<path d="M0 0 C-1.11733729 1.50571657 -2.24410035 3.00444292 -3.375 4.5 C-4.00148437 5.3353125 -4.62796875 6.170625 -5.2734375 7.03125 C-5.84320313 7.6809375 -6.41296875 8.330625 -7 9 C-7.66 9 -8.32 9 -9 9 C-7.5351418 1.43156597 -7.5351418 1.43156597 -5.0625 -0.5625 C-3 -1 -3 -1 0 0 Z " fill="#83E9F8" transform="translate(155,193)"/>
<path d="M0 0 C2.375 0.25 2.375 0.25 5 1 C6.3125 3.0625 6.3125 3.0625 7 5 C6.01 6.485 6.01 6.485 5 8 C2.525 7.01 2.525 7.01 0 6 C0 4.02 0 2.04 0 0 Z " fill="#F292F9" transform="translate(312,215)"/>
<path d="M0 0 C1.98 1.65 3.96 3.3 6 5 C2.16595445 6.4746329 -0.26676851 5.42974823 -4 4 C-4.99 3.67 -5.98 3.34 -7 3 C-7 2.34 -7 1.68 -7 1 C-4.69 1.33 -2.38 1.66 0 2 C0 1.34 0 0.68 0 0 Z " fill="#F196F5" transform="translate(277,172)"/>
<path d="M0 0 C2.97 1.98 2.97 1.98 6 4 C5.67 4.99 5.34 5.98 5 7 C2.03 6.505 2.03 6.505 -1 6 C-1.625 4.125 -1.625 4.125 -2 2 C-1.34 1.34 -0.68 0.68 0 0 Z " fill="#F392F7" transform="translate(327,225)"/>
<path d="M0 0 C-2.78469002 1.85646001 -4.2681416 2.45157815 -7.4375 3.125 C-8.19933594 3.29257812 -8.96117187 3.46015625 -9.74609375 3.6328125 C-12 4 -12 4 -16 4 C-16 3.34 -16 2.68 -16 2 C-10.42932723 0.40837921 -5.78898419 -0.20674944 0 0 Z " fill="#60D4F2" transform="translate(165,258)"/>
<path d="M0 0 C0.97582031 0.00902344 1.95164063 0.01804688 2.95703125 0.02734375 C4.06111328 0.04474609 4.06111328 0.04474609 5.1875 0.0625 C5.1875 0.3925 5.1875 0.7225 5.1875 1.0625 C-0.93230533 2.46704548 -6.52989294 3.29518915 -12.8125 3.0625 C-9.26061743 -0.48938257 -4.8063041 -0.05790728 0 0 Z " fill="#7BA8F5" transform="translate(196.8125,250.9375)"/>
<path d="M0 0 C-8.75 7 -8.75 7 -13 7 C-11.78836152 3.36508457 -10.89228938 3.04753785 -7.625 1.25 C-6.83351562 0.80140625 -6.04203125 0.3528125 -5.2265625 -0.109375 C-3 -1 -3 -1 0 0 Z " fill="#77DBF7" transform="translate(165,215)"/>
<path d="M0 0 C1.45922693 0.11409593 2.91740598 0.24165544 4.375 0.375 C5.59316406 0.47941406 5.59316406 0.47941406 6.8359375 0.5859375 C9 1 9 1 11 3 C11.99 4.485 11.99 4.485 13 6 C9.7 5.34 6.4 4.68 3 4 C3 3.34 3 2.68 3 2 C2.01 1.67 1.02 1.34 0 1 C0 0.67 0 0.34 0 0 Z " fill="#F1A9F6" transform="translate(359,264)"/>
<path d="M0 0 C2.875 0.3125 2.875 0.3125 6 1 C6.66 1.99 7.32 2.98 8 4 C7.01 4.66 6.02 5.32 5 6 C2.5 4.6875 2.5 4.6875 0 3 C0 2.01 0 1.02 0 0 Z " fill="#F47AFA" transform="translate(319,222)"/>
<path d="M0 0 C0.66 0.33 1.32 0.66 2 1 C-0.97 4.3 -3.94 7.6 -7 11 C-7.66 10.34 -8.32 9.68 -9 9 C-7.87895467 7.68412059 -6.75303035 6.37239647 -5.625 5.0625 C-4.99851562 4.33160156 -4.37203125 3.60070312 -3.7265625 2.84765625 C-2 1 -2 1 0 0 Z " fill="#E06DF2" transform="translate(269,209)"/>
<path d="M0 0 C0.33 0.66 0.66 1.32 1 2 C-2.07881696 5.87051275 -5.00073014 9.02911382 -9 12 C-9.66 11.67 -10.32 11.34 -11 11 C-7.37 7.37 -3.74 3.74 0 0 Z " fill="#80EFF7" transform="translate(112,182)"/>
<path d="M0 0 C0 0.66 0 1.32 0 2 C-4.97361654 3.75734451 -9.7415998 5.32584613 -15 6 C-11.15704127 2.4912116 -5.25312804 0 0 0 Z " fill="#3CE0E8" transform="translate(116,270)"/>
<path d="M0 0 C0.33 0.66 0.66 1.32 1 2 C-1.64 2.99 -4.28 3.98 -7 5 C-7 3.68 -7 2.36 -7 1 C-3.375 -1.125 -3.375 -1.125 0 0 Z " fill="#12DBE9" transform="translate(54,298)"/>
<path d="M0 0 C0.66 0.33 1.32 0.66 2 1 C1 4 1 4 -2 6 C-2.99 5.67 -3.98 5.34 -5 5 C-5.33 4.34 -5.66 3.68 -6 3 C-4.03533587 1.93224776 -2.03144641 0.93446535 0 0 Z " fill="#5FB7F2" transform="translate(169,210)"/>
<path d="M0 0 C0.763125 0.639375 1.52625 1.27875 2.3125 1.9375 C4.88246713 4.14232781 4.88246713 4.14232781 8 5 C8.6875 7.0625 8.6875 7.0625 9 9 C6.66471585 8.82701599 5.30822418 8.29774631 3.62109375 6.66796875 C0 2.42788462 0 2.42788462 0 0 Z " fill="#F9BCFD" transform="translate(242,147)"/>
<path d="M0 0 C-0.33 0.66 -0.66 1.32 -1 2 C-3.75078884 2.91692961 -5.35948913 3.10886083 -8.1875 3.0625 C-10.0746875 3.0315625 -10.0746875 3.0315625 -12 3 C-12 2.34 -12 1.68 -12 1 C-7.95858806 0.36605303 -4.0934693 -0.12404452 0 0 Z " fill="#749FF9" transform="translate(204,257)"/>
<path d="M0 0 C-1.78614318 1.03046722 -3.57910018 2.04913236 -5.375 3.0625 C-6.87160156 3.91521484 -6.87160156 3.91521484 -8.3984375 4.78515625 C-9.25695312 5.18605469 -10.11546875 5.58695313 -11 6 C-11.66 5.67 -12.32 5.34 -13 5 C-5.19759185 -1.50200679 -5.19759185 -1.50200679 0 0 Z " fill="#69CBF1" transform="translate(170,221)"/>
<path d="M0 0 C0.99 0.33 1.98 0.66 3 1 C-0.3 4.3 -3.6 7.6 -7 11 C-7.66 10.67 -8.32 10.34 -9 10 C-8.27683594 9.29423828 -8.27683594 9.29423828 -7.5390625 8.57421875 C-6.90742187 7.95160156 -6.27578125 7.32898438 -5.625 6.6875 C-4.68527344 5.76517578 -4.68527344 5.76517578 -3.7265625 4.82421875 C-1.81913393 2.91187472 -1.81913393 2.91187472 0 0 Z " fill="#4CEDF2" transform="translate(114,192)"/>
<path d="M0 0 C4.455 0.99 4.455 0.99 9 2 C5.1496895 4.56687367 3.41430237 3.83288724 -1 3 C-0.67 2.01 -0.34 1.02 0 0 Z " fill="#F28DF8" transform="translate(334,257)"/>
<path d="M0 0 C2.12563103 0.11376617 4.2505261 0.24135631 6.375 0.375 C8.15003906 0.47941406 8.15003906 0.47941406 9.9609375 0.5859375 C13 1 13 1 15 3 C10.86913771 4.18024637 8.86827457 3.74072356 5 2 C3.34080104 1.63128912 1.6752357 1.28718326 0 1 C0 0.67 0 0.34 0 0 Z " fill="#DC71EA" transform="translate(294,249)"/>
<path d="M0 0 C4.99911924 0.47610659 7.97832683 2.03162219 12 5 C9 6 9 6 6.73828125 5.00390625 C5.93777344 4.52824219 5.13726562 4.05257813 4.3125 3.5625 C3.50425781 3.08941406 2.69601562 2.61632812 1.86328125 2.12890625 C1.24839844 1.75636719 0.63351562 1.38382812 0 1 C0 0.67 0 0.34 0 0 Z " fill="#D7A7EC" transform="translate(383,272)"/>
<path d="M0 0 C0.66 0.33 1.32 0.66 2 1 C-0.97 3.97 -3.94 6.94 -7 10 C-7.33 9.01 -7.66 8.02 -8 7 C-5.36 4.69 -2.72 2.38 0 0 Z " fill="#5CF5FA" transform="translate(87,209)"/>
<path d="M0 0 C0.66 0.66 1.32 1.32 2 2 C-2.30769231 5.07692308 -2.30769231 5.07692308 -5.8125 4.6875 C-6.534375 4.460625 -7.25625 4.23375 -8 4 C-8 3.67 -8 3.34 -8 3 C-7.05125 2.690625 -6.1025 2.38125 -5.125 2.0625 C-2.13919592 1.12605258 -2.13919592 1.12605258 0 0 Z M-7 5 C-3 6 -3 6 -3 6 Z " fill="#7C92F0" transform="translate(205,247)"/>
<path d="M0 0 C2.97 0.33 5.94 0.66 9 1 C7.3125 2.625 7.3125 2.625 5 4 C2.25 3.1875 2.25 3.1875 0 2 C0 1.34 0 0.68 0 0 Z " fill="#CB70F7" transform="translate(257,245)"/>
<path d="M0 0 C0 3 0 3 -2 5.1875 C-2.66 5.785625 -3.32 6.38375 -4 7 C-4.99 6.67 -5.98 6.34 -7 6 C-4.74259377 3.66475218 -2.7194239 1.81294927 0 0 Z " fill="#D5C5FC" transform="translate(200,187)"/>
<path d="M0 0 C0.66 0.33 1.32 0.66 2 1 C0.515 3.475 0.515 3.475 -1 6 C-2.32 5.34 -3.64 4.68 -5 4 C-3.35 2.68 -1.7 1.36 0 0 Z " fill="#F396FA" transform="translate(298,176)"/>
<path d="M0 0 C0.33 0.99 0.66 1.98 1 3 C-0.4375 5.1875 -0.4375 5.1875 -2 7 C-3.32 6.67 -4.64 6.34 -6 6 C-4 4 -2 2 0 0 Z " fill="#5BF3FB" transform="translate(120,185)"/>
<path d="" fill="#38B7C9" transform="translate(0,0)"/>
</svg>
